<svg width="326" height="274" viewBox="0 0 326 274" fill="none" xmlns="http://www.w3.org/2000/svg">
<line x1="103.83" y1="177.083" x2="103.83" y2="216.019" stroke="black" style="stroke:black;stroke-opacity:1;" stroke-width="1.52692"/>
<line x1="35.7752" y1="126.304" x2="90.7442" y2="218.682" stroke="black" style="stroke:black;stroke-opacity:1;" stroke-width="1.52692"/>
<line x1="204.504" y1="111.045" x2="124.341" y2="249.231" stroke="black" style="stroke:black;stroke-opacity:1;" stroke-width="1.52692"/>
<line x1="119.099" y1="63.3205" x2="120.626" y2="238.152" stroke="black" style="stroke:black;stroke-opacity:1;" stroke-width="1.52692"/>
<rect x="-0.484454" y="0.484454" width="69.854" height="31.6904" rx="5.97494" transform="matrix(-1 0 0 1 69.8548 94.6292)" fill="#2CAACE" stroke="black" style="fill:#2CAACE;fill:color(display-p3 0.1725 0.6667 0.8078);fill-opacity:1;stroke:black;stroke-opacity:1;" stroke-width="0.968909"/>
<path d="M25.3552 114.464V107.229H28.3213C28.8243 107.229 29.248 107.309 29.5925 107.467C29.937 107.626 30.1954 107.846 30.3677 108.128C30.5468 108.404 30.6364 108.724 30.6364 109.09C30.6364 109.455 30.5571 109.761 30.3987 110.009C30.2402 110.258 30.0301 110.45 29.7682 110.588C29.5133 110.719 29.2308 110.795 28.9208 110.816L29.0861 110.702C29.4168 110.716 29.7097 110.805 29.9646 110.971C30.2264 111.129 30.4297 111.343 30.5744 111.611C30.7259 111.88 30.8017 112.173 30.8017 112.49C30.8017 112.876 30.7087 113.217 30.5227 113.513C30.3367 113.809 30.068 114.044 29.7166 114.216C29.3652 114.381 28.9345 114.464 28.4247 114.464H25.3552ZM26.7504 113.327H28.1973C28.5763 113.327 28.8691 113.241 29.0758 113.069C29.2825 112.896 29.3858 112.648 29.3858 112.325C29.3858 112.001 29.279 111.749 29.0655 111.57C28.8519 111.384 28.5556 111.291 28.1766 111.291H26.7504V113.327ZM26.7504 110.247H28.094C28.4591 110.247 28.7347 110.164 28.9208 109.999C29.1137 109.834 29.2101 109.6 29.2101 109.296C29.2101 109 29.1137 108.769 28.9208 108.604C28.7347 108.432 28.4557 108.346 28.0836 108.346H26.7504V110.247ZM31.9458 114.464V109.255H33.341V114.464H31.9458ZM32.6486 108.542C32.4005 108.542 32.1938 108.47 32.0285 108.325C31.87 108.173 31.7908 107.984 31.7908 107.756C31.7908 107.529 31.87 107.343 32.0285 107.198C32.1938 107.047 32.4005 106.971 32.6486 106.971C32.9035 106.971 33.1102 107.047 33.2687 107.198C33.434 107.343 33.5167 107.529 33.5167 107.756C33.5167 107.984 33.434 108.173 33.2687 108.325C33.1102 108.47 32.9035 108.542 32.6486 108.542ZM34.7508 114.464V107.023H36.1461V114.464H34.7508ZM37.5062 114.464V107.023H38.9014V114.464H37.5062ZM42.3905 114.588C41.9151 114.588 41.5017 114.512 41.1503 114.361C40.7989 114.209 40.5233 113.999 40.3235 113.73C40.1237 113.461 40.01 113.158 39.9825 112.821H41.3674C41.4018 112.952 41.4604 113.072 41.5431 113.182C41.6257 113.286 41.736 113.368 41.8738 113.43C42.0116 113.492 42.1769 113.523 42.3699 113.523C42.5559 113.523 42.7075 113.499 42.8246 113.451C42.9417 113.396 43.0279 113.324 43.083 113.234C43.145 113.144 43.176 113.051 43.176 112.955C43.176 112.81 43.1347 112.7 43.052 112.624C42.9693 112.542 42.8487 112.476 42.6903 112.428C42.5318 112.38 42.3389 112.331 42.1115 112.283C41.8634 112.235 41.6189 112.176 41.3777 112.107C41.1434 112.032 40.9333 111.939 40.7473 111.828C40.5612 111.718 40.4131 111.577 40.3029 111.405C40.1926 111.232 40.1375 111.019 40.1375 110.764C40.1375 110.454 40.2202 110.178 40.3855 109.937C40.5509 109.689 40.7921 109.493 41.109 109.348C41.4259 109.203 41.8083 109.131 42.2562 109.131C42.8832 109.131 43.3793 109.272 43.7444 109.555C44.1096 109.837 44.3266 110.227 44.3955 110.723H43.083C43.0416 110.564 42.9486 110.44 42.8039 110.351C42.6661 110.254 42.4801 110.206 42.2458 110.206C41.9978 110.206 41.8083 110.251 41.6774 110.34C41.5465 110.43 41.4811 110.547 41.4811 110.692C41.4811 110.788 41.5224 110.874 41.6051 110.95C41.6946 111.026 41.8187 111.091 41.9771 111.146C42.1356 111.195 42.3285 111.243 42.5559 111.291C42.9555 111.374 43.3069 111.47 43.6101 111.58C43.9132 111.684 44.1509 111.835 44.3232 112.035C44.4954 112.228 44.5816 112.511 44.5816 112.883C44.5816 113.213 44.492 113.51 44.3129 113.771C44.1337 114.026 43.8788 114.226 43.5481 114.371C43.2242 114.516 42.8384 114.588 42.3905 114.588Z" fill="black" style="fill:black;fill-opacity:1;"/>
<rect x="160.811" y="83.6617" width="85.6332" height="31.6904" rx="5.97494" fill="#2CAACE" stroke="black" style="fill:#2CAACE;fill:color(display-p3 0.1725 0.6667 0.8078);fill-opacity:1;stroke:black;stroke-opacity:1;" stroke-width="0.968909"/>
<path d="M182.191 103.012V95.7777H184.889C185.474 95.7777 185.957 95.8776 186.335 96.0774C186.714 96.2772 186.997 96.5459 187.183 96.8835C187.369 97.2143 187.462 97.5829 187.462 97.9894C187.462 98.3752 187.372 98.7369 187.193 99.0746C187.014 99.4053 186.732 99.674 186.346 99.8807C185.967 100.081 185.478 100.18 184.878 100.18H183.586V103.012H182.191ZM185.943 103.012L184.454 99.829H185.963L187.534 103.012H185.943ZM183.586 99.1676H184.806C185.226 99.1676 185.536 99.0642 185.736 98.8575C185.936 98.6508 186.036 98.3787 186.036 98.0411C186.036 97.7034 185.936 97.4382 185.736 97.2453C185.543 97.0454 185.233 96.9455 184.806 96.9455H183.586V99.1676ZM190.868 103.136C190.345 103.136 189.88 103.026 189.473 102.806C189.073 102.578 188.76 102.265 188.533 101.865C188.312 101.459 188.202 100.99 188.202 100.459C188.202 99.9151 188.312 99.4363 188.533 99.0229C188.753 98.6026 189.063 98.2753 189.463 98.0411C189.869 97.7999 190.338 97.6793 190.868 97.6793C191.385 97.6793 191.836 97.793 192.222 98.0204C192.608 98.2478 192.908 98.5544 193.121 98.9402C193.335 99.326 193.442 99.7636 193.442 100.253C193.442 100.322 193.442 100.401 193.442 100.49C193.442 100.573 193.435 100.659 193.421 100.749H189.194V99.9014H192.036C192.015 99.5638 191.895 99.2985 191.674 99.1056C191.461 98.9126 191.192 98.8162 190.868 98.8162C190.634 98.8162 190.417 98.8713 190.217 98.9815C190.017 99.0849 189.859 99.2468 189.742 99.4673C189.631 99.6878 189.576 99.9668 189.576 100.304V100.604C189.576 100.887 189.628 101.135 189.731 101.348C189.842 101.555 189.993 101.717 190.186 101.834C190.379 101.944 190.603 101.999 190.858 101.999C191.113 101.999 191.323 101.944 191.488 101.834C191.661 101.724 191.788 101.583 191.871 101.41H193.297C193.201 101.734 193.039 102.027 192.811 102.289C192.584 102.551 192.305 102.757 191.974 102.909C191.643 103.06 191.275 103.136 190.868 103.136ZM197.106 103.136C196.582 103.136 196.117 103.019 195.711 102.785C195.304 102.551 194.987 102.23 194.76 101.824C194.533 101.417 194.419 100.952 194.419 100.428C194.419 99.891 194.533 99.4191 194.76 99.0125C194.987 98.5991 195.304 98.2753 195.711 98.0411C196.117 97.7999 196.582 97.6793 197.106 97.6793C197.774 97.6793 198.336 97.855 198.791 98.2064C199.245 98.5578 199.535 99.0401 199.659 99.6533H198.181C198.119 99.4122 197.988 99.2227 197.788 99.0849C197.595 98.9471 197.364 98.8782 197.096 98.8782C196.855 98.8782 196.638 98.9402 196.445 99.0642C196.259 99.1814 196.11 99.3571 196 99.5913C195.897 99.8187 195.845 100.091 195.845 100.408C195.845 100.649 195.876 100.866 195.938 101.059C196 101.245 196.086 101.407 196.197 101.545C196.307 101.676 196.438 101.775 196.589 101.844C196.748 101.913 196.917 101.948 197.096 101.948C197.275 101.948 197.437 101.917 197.582 101.855C197.733 101.793 197.861 101.707 197.964 101.596C198.067 101.479 198.14 101.338 198.181 101.173H199.659C199.535 101.772 199.242 102.251 198.78 102.609C198.326 102.961 197.768 103.136 197.106 103.136ZM203.363 103.136C202.84 103.136 202.374 103.026 201.968 102.806C201.568 102.578 201.255 102.265 201.027 101.865C200.807 101.459 200.697 100.99 200.697 100.459C200.697 99.9151 200.807 99.4363 201.027 99.0229C201.248 98.6026 201.558 98.2753 201.958 98.0411C202.364 97.7999 202.833 97.6793 203.363 97.6793C203.88 97.6793 204.331 97.793 204.717 98.0204C205.103 98.2478 205.403 98.5544 205.616 98.9402C205.83 99.326 205.937 99.7636 205.937 100.253C205.937 100.322 205.937 100.401 205.937 100.49C205.937 100.573 205.93 100.659 205.916 100.749H201.689V99.9014H204.531C204.51 99.5638 204.39 99.2985 204.169 99.1056C203.956 98.9126 203.687 98.8162 203.363 98.8162C203.129 98.8162 202.912 98.8713 202.712 98.9815C202.512 99.0849 202.354 99.2468 202.237 99.4673C202.126 99.6878 202.071 99.9668 202.071 100.304V100.604C202.071 100.887 202.123 101.135 202.226 101.348C202.337 101.555 202.488 101.717 202.681 101.834C202.874 101.944 203.098 101.999 203.353 101.999C203.608 101.999 203.818 101.944 203.983 101.834C204.155 101.724 204.283 101.583 204.366 101.41H205.792C205.695 101.734 205.534 102.027 205.306 102.289C205.079 102.551 204.8 102.757 204.469 102.909C204.138 103.06 203.77 103.136 203.363 103.136ZM207.11 103.012V97.8034H208.505V103.012H207.11ZM207.813 97.0902C207.565 97.0902 207.358 97.0179 207.193 96.8732C207.034 96.7216 206.955 96.5321 206.955 96.3048C206.955 96.0774 207.034 95.8914 207.193 95.7467C207.358 95.5951 207.565 95.5193 207.813 95.5193C208.068 95.5193 208.275 95.5951 208.433 95.7467C208.598 95.8914 208.681 96.0774 208.681 96.3048C208.681 96.5321 208.598 96.7216 208.433 96.8732C208.275 97.0179 208.068 97.0902 207.813 97.0902ZM209.915 105.286V97.8034H211.156L211.311 98.5268C211.421 98.3752 211.552 98.2374 211.703 98.1134C211.855 97.9825 212.034 97.8791 212.241 97.8034C212.454 97.7207 212.702 97.6793 212.985 97.6793C213.474 97.6793 213.905 97.7999 214.277 98.0411C214.649 98.2822 214.942 98.6095 215.155 99.0229C215.376 99.4294 215.486 99.8945 215.486 100.418C215.486 100.942 215.376 101.41 215.155 101.824C214.935 102.23 214.638 102.551 214.266 102.785C213.894 103.019 213.471 103.136 212.995 103.136C212.609 103.136 212.275 103.067 211.993 102.93C211.717 102.785 211.49 102.588 211.311 102.34V105.286H209.915ZM212.664 101.917C212.94 101.917 213.181 101.855 213.388 101.731C213.601 101.607 213.767 101.431 213.884 101.204C214.001 100.976 214.06 100.714 214.06 100.418C214.06 100.122 214.001 99.86 213.884 99.6327C213.767 99.3984 213.601 99.2193 213.388 99.0952C213.181 98.9643 212.94 98.8989 212.664 98.8989C212.396 98.8989 212.155 98.9643 211.941 99.0952C211.734 99.2193 211.569 99.3949 211.445 99.6223C211.328 99.8497 211.269 100.112 211.269 100.408C211.269 100.704 211.328 100.969 211.445 101.204C211.569 101.431 211.734 101.607 211.941 101.731C212.155 101.855 212.396 101.917 212.664 101.917ZM218.832 103.012C218.467 103.012 218.146 102.957 217.871 102.847C217.602 102.73 217.392 102.54 217.24 102.278C217.089 102.01 217.013 101.645 217.013 101.183V98.9712H216.124V97.8034H217.013L217.168 96.3875H218.408V97.8034H219.783V98.9712H218.408V101.204C218.408 101.438 218.46 101.6 218.563 101.689C218.666 101.779 218.842 101.824 219.09 101.824H219.772V103.012H218.832ZM223.086 103.136C222.61 103.136 222.197 103.06 221.846 102.909C221.494 102.757 221.219 102.547 221.019 102.278C220.819 102.01 220.705 101.707 220.678 101.369H222.063C222.097 101.5 222.156 101.62 222.238 101.731C222.321 101.834 222.431 101.917 222.569 101.979C222.707 102.041 222.872 102.072 223.065 102.072C223.251 102.072 223.403 102.048 223.52 101.999C223.637 101.944 223.723 101.872 223.778 101.782C223.84 101.693 223.871 101.6 223.871 101.503C223.871 101.359 223.83 101.248 223.747 101.173C223.665 101.09 223.544 101.024 223.386 100.976C223.227 100.928 223.034 100.88 222.807 100.832C222.559 100.783 222.314 100.725 222.073 100.656C221.839 100.58 221.629 100.487 221.443 100.377C221.257 100.267 221.108 100.125 220.998 99.953C220.888 99.7808 220.833 99.5672 220.833 99.3123C220.833 99.0022 220.915 98.7266 221.081 98.4855C221.246 98.2374 221.487 98.0411 221.804 97.8964C222.121 97.7517 222.504 97.6793 222.951 97.6793C223.578 97.6793 224.075 97.8206 224.44 98.1031C224.805 98.3856 225.022 98.7748 225.091 99.2709H223.778C223.737 99.1125 223.644 98.9884 223.499 98.8989C223.361 98.8024 223.175 98.7542 222.941 98.7542C222.693 98.7542 222.504 98.799 222.373 98.8885C222.242 98.9781 222.176 99.0952 222.176 99.2399C222.176 99.3364 222.218 99.4225 222.3 99.4983C222.39 99.5741 222.514 99.6395 222.672 99.6947C222.831 99.7429 223.024 99.7911 223.251 99.8394C223.651 99.922 224.002 100.018 224.305 100.129C224.609 100.232 224.846 100.384 225.019 100.583C225.191 100.776 225.277 101.059 225.277 101.431C225.277 101.762 225.187 102.058 225.008 102.32C224.829 102.575 224.574 102.775 224.243 102.919C223.92 103.064 223.534 103.136 223.086 103.136Z" fill="black" style="fill:black;fill-opacity:1;"/>
<rect x="-0.484454" y="0.484454" width="89.6698" height="31.6904" rx="5.97494" transform="matrix(-1 0 0 1 164.488 36.6064)" fill="#2CAACE" stroke="black" style="fill:#2CAACE;fill:color(display-p3 0.1725 0.6667 0.8078);fill-opacity:1;stroke:black;stroke-opacity:1;" stroke-width="0.968909"/>
<path d="M95.5575 56.4421V49.2076H96.9527V56.4421H95.5575ZM98.3424 56.4421V51.2333H99.5722L99.6756 52.0808C99.8341 51.7914 100.058 51.5571 100.347 51.378C100.644 51.1988 100.995 51.1093 101.402 51.1093C101.836 51.1093 102.201 51.1988 102.497 51.378C102.793 51.5571 103.017 51.8189 103.169 52.1634C103.327 52.5079 103.407 52.9317 103.407 53.4346V56.4421H102.022V53.569C102.022 53.1556 101.932 52.8387 101.753 52.6182C101.581 52.3977 101.312 52.2875 100.947 52.2875C100.713 52.2875 100.502 52.3426 100.316 52.4528C100.137 52.5631 99.996 52.7215 99.8926 52.9282C99.7893 53.128 99.7376 53.3726 99.7376 53.662V56.4421H98.3424ZM106.85 56.5662C106.375 56.5662 105.961 56.4904 105.61 56.3388C105.258 56.1872 104.983 55.9771 104.783 55.7084C104.583 55.4396 104.47 55.1365 104.442 54.7989H105.827C105.861 54.9298 105.92 55.0504 106.003 55.1606C106.085 55.2639 106.195 55.3466 106.333 55.4086C106.471 55.4706 106.636 55.5017 106.829 55.5017C107.015 55.5017 107.167 55.4775 107.284 55.4293C107.401 55.3742 107.487 55.3018 107.542 55.2123C107.604 55.1227 107.636 55.0297 107.636 54.9332C107.636 54.7885 107.594 54.6783 107.511 54.6025C107.429 54.5198 107.308 54.4544 107.15 54.4061C106.991 54.3579 106.798 54.3097 106.571 54.2614C106.323 54.2132 106.078 54.1547 105.837 54.0858C105.603 54.01 105.393 53.9169 105.207 53.8067C105.021 53.6965 104.873 53.5552 104.762 53.383C104.652 53.2107 104.597 52.9971 104.597 52.7422C104.597 52.4321 104.68 52.1565 104.845 51.9154C105.01 51.6674 105.252 51.471 105.568 51.3263C105.885 51.1816 106.268 51.1093 106.716 51.1093C107.343 51.1093 107.839 51.2505 108.204 51.533C108.569 51.8155 108.786 52.2048 108.855 52.7009H107.542C107.501 52.5424 107.408 52.4184 107.263 52.3288C107.126 52.2323 106.94 52.1841 106.705 52.1841C106.457 52.1841 106.268 52.2289 106.137 52.3185C106.006 52.408 105.941 52.5252 105.941 52.6699C105.941 52.7663 105.982 52.8524 106.065 52.9282C106.154 53.004 106.278 53.0695 106.437 53.1246C106.595 53.1728 106.788 53.2211 107.015 53.2693C107.415 53.352 107.766 53.4484 108.07 53.5587C108.373 53.662 108.61 53.8136 108.783 54.0134C108.955 54.2063 109.041 54.4888 109.041 54.8609C109.041 55.1916 108.951 55.4879 108.772 55.7497C108.593 56.0046 108.338 56.2044 108.008 56.3491C107.684 56.4938 107.298 56.5662 106.85 56.5662ZM112.165 56.5662C111.744 56.5662 111.383 56.48 111.079 56.3078C110.783 56.1286 110.556 55.8703 110.397 55.5327C110.239 55.1882 110.16 54.7644 110.16 54.2614V51.2333H111.555V54.1168C111.555 54.537 111.641 54.854 111.813 55.0676C111.992 55.2812 112.264 55.388 112.63 55.388C112.864 55.388 113.071 55.3363 113.25 55.2329C113.429 55.1227 113.57 54.9677 113.674 54.7679C113.784 54.5612 113.839 54.3097 113.839 54.0134V51.2333H115.224V56.4421H114.004L113.891 55.5947C113.739 55.8909 113.515 56.1286 113.219 56.3078C112.922 56.48 112.571 56.5662 112.165 56.5662ZM116.59 56.4421V51.2333H117.83L117.965 52.1944C118.089 51.9671 118.244 51.7741 118.43 51.6157C118.623 51.4572 118.84 51.3332 119.081 51.2436C119.329 51.154 119.601 51.1093 119.897 51.1093V52.5872H119.422C119.215 52.5872 119.022 52.6113 118.843 52.6595C118.671 52.7077 118.519 52.787 118.388 52.8972C118.258 53.0006 118.158 53.1453 118.089 53.3313C118.02 53.5173 117.985 53.7516 117.985 54.0341V56.4421H116.59ZM122.576 56.5662C122.142 56.5662 121.784 56.4973 121.501 56.3595C121.219 56.2148 121.009 56.0253 120.871 55.791C120.74 55.5499 120.674 55.2846 120.674 54.9952C120.674 54.6783 120.754 54.3992 120.912 54.1581C121.077 53.9169 121.322 53.7275 121.646 53.5897C121.977 53.4519 122.39 53.383 122.886 53.383H124.178C124.178 53.128 124.143 52.9179 124.075 52.7525C124.006 52.5803 123.899 52.4528 123.754 52.3701C123.61 52.2875 123.417 52.2461 123.175 52.2461C122.914 52.2461 122.69 52.3047 122.504 52.4218C122.325 52.5321 122.214 52.7043 122.173 52.9386H120.819C120.853 52.5665 120.974 52.2461 121.181 51.9774C121.394 51.7018 121.673 51.4882 122.018 51.3366C122.369 51.1851 122.759 51.1093 123.186 51.1093C123.675 51.1093 124.099 51.1919 124.457 51.3573C124.815 51.5227 125.091 51.7604 125.284 52.0704C125.477 52.3805 125.573 52.7629 125.573 53.2176V56.4421H124.395L124.24 55.6463C124.164 55.7841 124.075 55.9082 123.971 56.0184C123.868 56.1286 123.747 56.2251 123.61 56.3078C123.472 56.3905 123.317 56.4525 123.144 56.4938C122.972 56.542 122.783 56.5662 122.576 56.5662ZM122.907 55.4913C123.086 55.4913 123.244 55.4603 123.382 55.3983C123.527 55.3294 123.651 55.2398 123.754 55.1296C123.858 55.0125 123.937 54.8815 123.992 54.7369C124.054 54.5853 124.095 54.4234 124.116 54.2511V54.2408H123.051C122.838 54.2408 122.662 54.2683 122.524 54.3235C122.393 54.3717 122.297 54.444 122.235 54.5405C122.173 54.637 122.142 54.7472 122.142 54.8712C122.142 55.009 122.173 55.1227 122.235 55.2123C122.297 55.3018 122.387 55.3707 122.504 55.419C122.621 55.4672 122.755 55.4913 122.907 55.4913ZM126.875 56.4421V51.2333H128.105L128.208 52.0808C128.366 51.7914 128.59 51.5571 128.88 51.378C129.176 51.1988 129.527 51.1093 129.934 51.1093C130.368 51.1093 130.733 51.1988 131.029 51.378C131.326 51.5571 131.55 51.8189 131.701 52.1634C131.86 52.5079 131.939 52.9317 131.939 53.4346V56.4421H130.554V53.569C130.554 53.1556 130.464 52.8387 130.285 52.6182C130.113 52.3977 129.844 52.2875 129.479 52.2875C129.245 52.2875 129.035 52.3426 128.849 52.4528C128.67 52.5631 128.528 52.7215 128.425 52.9282C128.322 53.128 128.27 53.3726 128.27 53.662V56.4421H126.875ZM135.775 56.5662C135.251 56.5662 134.786 56.449 134.38 56.2148C133.973 55.9805 133.656 55.6601 133.429 55.2536C133.202 54.8471 133.088 54.382 133.088 53.8584C133.088 53.321 133.202 52.849 133.429 52.4425C133.656 52.0291 133.973 51.7052 134.38 51.471C134.786 51.2298 135.251 51.1093 135.775 51.1093C136.443 51.1093 137.005 51.285 137.46 51.6363C137.914 51.9877 138.204 52.47 138.328 53.0833H136.85C136.788 52.8421 136.657 52.6526 136.457 52.5148C136.264 52.377 136.034 52.3081 135.765 52.3081C135.524 52.3081 135.307 52.3701 135.114 52.4942C134.928 52.6113 134.78 52.787 134.669 53.0212C134.566 53.2486 134.514 53.5208 134.514 53.8377C134.514 54.0789 134.545 54.2959 134.607 54.4888C134.669 54.6748 134.755 54.8368 134.866 54.9746C134.976 55.1055 135.107 55.2054 135.258 55.2743C135.417 55.3432 135.586 55.3776 135.765 55.3776C135.944 55.3776 136.106 55.3466 136.251 55.2846C136.402 55.2226 136.53 55.1365 136.633 55.0262C136.736 54.9091 136.809 54.7679 136.85 54.6025H138.328C138.204 55.2019 137.911 55.6808 137.449 56.0391C136.995 56.3905 136.437 56.5662 135.775 56.5662ZM142.032 56.5662C141.509 56.5662 141.043 56.4559 140.637 56.2354C140.237 56.0081 139.924 55.6946 139.696 55.295C139.476 54.8884 139.366 54.4199 139.366 53.8894C139.366 53.3451 139.476 52.8662 139.696 52.4528C139.917 52.0325 140.227 51.7052 140.627 51.471C141.033 51.2298 141.502 51.1093 142.032 51.1093C142.549 51.1093 143 51.2229 143.386 51.4503C143.772 51.6777 144.072 51.9843 144.285 52.3701C144.499 52.756 144.606 53.1935 144.606 53.6827C144.606 53.7516 144.606 53.8308 144.606 53.9204C144.606 54.0031 144.599 54.0892 144.585 54.1788H140.358V53.3313H143.2C143.179 52.9937 143.059 52.7284 142.838 52.5355C142.625 52.3426 142.356 52.2461 142.032 52.2461C141.798 52.2461 141.581 52.3012 141.381 52.4115C141.181 52.5148 141.023 52.6767 140.906 52.8972C140.795 53.1177 140.74 53.3967 140.74 53.7344V54.0341C140.74 54.3166 140.792 54.5646 140.895 54.7782C141.006 54.9849 141.157 55.1468 141.35 55.2639C141.543 55.3742 141.767 55.4293 142.022 55.4293C142.277 55.4293 142.487 55.3742 142.652 55.2639C142.825 55.1537 142.952 55.0125 143.035 54.8402H144.461C144.364 55.164 144.203 55.4569 143.975 55.7187C143.748 55.9805 143.469 56.1872 143.138 56.3388C142.807 56.4904 142.439 56.5662 142.032 56.5662Z" fill="black" style="fill:black;fill-opacity:1;"/>
<rect x="-0.484454" y="0.484454" width="88.5689" height="31.6904" rx="5.97494" transform="matrix(-1 0 0 1 146.592 144.938)" fill="#2CAACE" stroke="black" style="fill:#2CAACE;fill:color(display-p3 0.1725 0.6667 0.8078);fill-opacity:1;stroke:black;stroke-opacity:1;" stroke-width="0.968909"/>
<path d="M77.0196 164.773L75.118 157.538H76.6062L77.8671 163.191L79.3553 157.538H80.8953L82.3422 163.191L83.6134 157.538H85.112L83.1586 164.773H81.4947L80.1098 159.502L78.6732 164.773H77.0196ZM87.1995 164.897C86.7654 164.897 86.4071 164.828 86.1246 164.69C85.8421 164.545 85.632 164.356 85.4942 164.122C85.3633 163.88 85.2978 163.615 85.2978 163.326C85.2978 163.009 85.3771 162.73 85.5355 162.489C85.7009 162.248 85.9455 162.058 86.2693 161.92C86.6 161.782 87.0134 161.714 87.5095 161.714H88.8014C88.8014 161.459 88.767 161.248 88.6981 161.083C88.6292 160.911 88.5224 160.783 88.3777 160.701C88.233 160.618 88.0401 160.577 87.7989 160.577C87.5371 160.577 87.3132 160.635 87.1271 160.752C86.948 160.863 86.8377 161.035 86.7964 161.269H85.4425C85.477 160.897 85.5975 160.577 85.8042 160.308C86.0178 160.032 86.2969 159.819 86.6414 159.667C86.9928 159.516 87.3821 159.44 87.8092 159.44C88.2984 159.44 88.7222 159.523 89.0804 159.688C89.4387 159.853 89.7143 160.091 89.9073 160.401C90.1002 160.711 90.1966 161.093 90.1966 161.548V164.773H89.0184L88.8634 163.977C88.7876 164.115 88.6981 164.239 88.5947 164.349C88.4914 164.459 88.3708 164.556 88.233 164.638C88.0952 164.721 87.9401 164.783 87.7679 164.824C87.5956 164.873 87.4062 164.897 87.1995 164.897ZM87.5302 163.822C87.7093 163.822 87.8678 163.791 88.0056 163.729C88.1503 163.66 88.2743 163.57 88.3777 163.46C88.481 163.343 88.5603 163.212 88.6154 163.067C88.6774 162.916 88.7187 162.754 88.7394 162.582V162.571H87.6749C87.4613 162.571 87.2856 162.599 87.1478 162.654C87.0169 162.702 86.9204 162.775 86.8584 162.871C86.7964 162.968 86.7654 163.078 86.7654 163.202C86.7654 163.34 86.7964 163.453 86.8584 163.543C86.9204 163.632 87.01 163.701 87.1271 163.75C87.2443 163.798 87.3786 163.822 87.5302 163.822ZM91.4982 164.773V159.564H92.7384L92.8728 160.525C92.9968 160.298 93.1518 160.105 93.3378 159.946C93.5308 159.788 93.7478 159.664 93.9889 159.574C94.237 159.485 94.5091 159.44 94.8054 159.44V160.918H94.33C94.1233 160.918 93.9304 160.942 93.7512 160.99C93.579 161.038 93.4274 161.118 93.2965 161.228C93.1656 161.331 93.0657 161.476 92.9968 161.662C92.9279 161.848 92.8934 162.082 92.8934 162.365V164.773H91.4982ZM95.7271 164.773V159.564H96.9673L97.1016 160.525C97.2257 160.298 97.3807 160.105 97.5667 159.946C97.7596 159.788 97.9767 159.664 98.2178 159.574C98.4659 159.485 98.738 159.44 99.0343 159.44V160.918H98.5589C98.3522 160.918 98.1593 160.942 97.9801 160.99C97.8079 161.038 97.6563 161.118 97.5254 161.228C97.3945 161.331 97.2946 161.476 97.2257 161.662C97.1568 161.848 97.1223 162.082 97.1223 162.365V164.773H95.7271ZM101.713 164.897C101.279 164.897 100.921 164.828 100.638 164.69C100.356 164.545 100.145 164.356 100.008 164.122C99.8767 163.88 99.8113 163.615 99.8113 163.326C99.8113 163.009 99.8905 162.73 100.049 162.489C100.214 162.248 100.459 162.058 100.783 161.92C101.113 161.782 101.527 161.714 102.023 161.714H103.315C103.315 161.459 103.28 161.248 103.212 161.083C103.143 160.911 103.036 160.783 102.891 160.701C102.746 160.618 102.554 160.577 102.312 160.577C102.051 160.577 101.827 160.635 101.641 160.752C101.461 160.863 101.351 161.035 101.31 161.269H99.956C99.9904 160.897 100.111 160.577 100.318 160.308C100.531 160.032 100.81 159.819 101.155 159.667C101.506 159.516 101.896 159.44 102.323 159.44C102.812 159.44 103.236 159.523 103.594 159.688C103.952 159.853 104.228 160.091 104.421 160.401C104.614 160.711 104.71 161.093 104.71 161.548V164.773H103.532L103.377 163.977C103.301 164.115 103.212 164.239 103.108 164.349C103.005 164.459 102.884 164.556 102.746 164.638C102.609 164.721 102.454 164.783 102.281 164.824C102.109 164.873 101.92 164.897 101.713 164.897ZM102.044 163.822C102.223 163.822 102.381 163.791 102.519 163.729C102.664 163.66 102.788 163.57 102.891 163.46C102.994 163.343 103.074 163.212 103.129 163.067C103.191 162.916 103.232 162.754 103.253 162.582V162.571H102.188C101.975 162.571 101.799 162.599 101.661 162.654C101.53 162.702 101.434 162.775 101.372 162.871C101.31 162.968 101.279 163.078 101.279 163.202C101.279 163.34 101.31 163.453 101.372 163.543C101.434 163.632 101.523 163.701 101.641 163.75C101.758 163.798 101.892 163.822 102.044 163.822ZM106.012 164.773V159.564H107.242L107.345 160.411C107.503 160.122 107.727 159.888 108.017 159.709C108.313 159.529 108.664 159.44 109.071 159.44C109.505 159.44 109.87 159.529 110.166 159.709C110.463 159.888 110.687 160.15 110.838 160.494C110.997 160.839 111.076 161.262 111.076 161.765V164.773H109.691V161.9C109.691 161.486 109.601 161.169 109.422 160.949C109.25 160.728 108.981 160.618 108.616 160.618C108.382 160.618 108.172 160.673 107.986 160.783C107.806 160.894 107.665 161.052 107.562 161.259C107.459 161.459 107.407 161.703 107.407 161.993V164.773H106.012ZM114.736 164.773C114.371 164.773 114.051 164.718 113.775 164.607C113.506 164.49 113.296 164.301 113.145 164.039C112.993 163.77 112.917 163.405 112.917 162.943V160.732H112.029V159.564H112.917L113.072 158.148H114.313V159.564H115.687V160.732H114.313V162.964C114.313 163.198 114.364 163.36 114.468 163.45C114.571 163.539 114.747 163.584 114.995 163.584H115.677V164.773H114.736ZM116.892 164.773V159.564H118.288V164.773H116.892ZM117.595 158.851C117.347 158.851 117.14 158.778 116.975 158.634C116.817 158.482 116.737 158.293 116.737 158.065C116.737 157.838 116.817 157.652 116.975 157.507C117.14 157.356 117.347 157.28 117.595 157.28C117.85 157.28 118.057 157.356 118.215 157.507C118.381 157.652 118.463 157.838 118.463 158.065C118.463 158.293 118.381 158.482 118.215 158.634C118.057 158.778 117.85 158.851 117.595 158.851ZM122.199 164.897C121.675 164.897 121.21 164.786 120.803 164.566C120.404 164.339 120.09 164.025 119.863 163.626C119.642 163.219 119.532 162.75 119.532 162.22C119.532 161.676 119.642 161.197 119.863 160.783C120.083 160.363 120.393 160.036 120.793 159.802C121.2 159.56 121.668 159.44 122.199 159.44C122.715 159.44 123.167 159.554 123.552 159.781C123.938 160.008 124.238 160.315 124.452 160.701C124.665 161.087 124.772 161.524 124.772 162.013C124.772 162.082 124.772 162.161 124.772 162.251C124.772 162.334 124.765 162.42 124.751 162.509H120.524V161.662H123.366C123.346 161.324 123.225 161.059 123.005 160.866C122.791 160.673 122.522 160.577 122.199 160.577C121.964 160.577 121.747 160.632 121.547 160.742C121.348 160.845 121.189 161.007 121.072 161.228C120.962 161.448 120.907 161.727 120.907 162.065V162.365C120.907 162.647 120.958 162.895 121.062 163.109C121.172 163.315 121.324 163.477 121.516 163.595C121.709 163.705 121.933 163.76 122.188 163.76C122.443 163.76 122.653 163.705 122.819 163.595C122.991 163.484 123.118 163.343 123.201 163.171H124.627C124.531 163.495 124.369 163.787 124.142 164.049C123.914 164.311 123.635 164.518 123.304 164.669C122.974 164.821 122.605 164.897 122.199 164.897ZM128.044 164.897C127.568 164.897 127.155 164.821 126.803 164.669C126.452 164.518 126.176 164.308 125.977 164.039C125.777 163.77 125.663 163.467 125.636 163.129H127.021C127.055 163.26 127.114 163.381 127.196 163.491C127.279 163.595 127.389 163.677 127.527 163.739C127.665 163.801 127.83 163.832 128.023 163.832C128.209 163.832 128.361 163.808 128.478 163.76C128.595 163.705 128.681 163.632 128.736 163.543C128.798 163.453 128.829 163.36 128.829 163.264C128.829 163.119 128.788 163.009 128.705 162.933C128.622 162.85 128.502 162.785 128.343 162.737C128.185 162.688 127.992 162.64 127.765 162.592C127.517 162.544 127.272 162.485 127.031 162.416C126.797 162.341 126.586 162.248 126.4 162.137C126.214 162.027 126.066 161.886 125.956 161.714C125.846 161.541 125.791 161.328 125.791 161.073C125.791 160.763 125.873 160.487 126.039 160.246C126.204 159.998 126.445 159.802 126.762 159.657C127.079 159.512 127.461 159.44 127.909 159.44C128.536 159.44 129.032 159.581 129.398 159.864C129.763 160.146 129.98 160.535 130.049 161.031H128.736C128.695 160.873 128.602 160.749 128.457 160.659C128.319 160.563 128.133 160.515 127.899 160.515C127.651 160.515 127.461 160.559 127.331 160.649C127.2 160.739 127.134 160.856 127.134 161C127.134 161.097 127.176 161.183 127.258 161.259C127.348 161.335 127.472 161.4 127.63 161.455C127.789 161.503 127.982 161.552 128.209 161.6C128.609 161.683 128.96 161.779 129.263 161.889C129.566 161.993 129.804 162.144 129.976 162.344C130.149 162.537 130.235 162.819 130.235 163.191C130.235 163.522 130.145 163.818 129.966 164.08C129.787 164.335 129.532 164.535 129.201 164.68C128.877 164.824 128.492 164.897 128.044 164.897Z" fill="black" style="fill:black;fill-opacity:1;"/>
<path d="M50.9374 67.0594H28.2306C26.5214 67.0594 25.1353 68.4455 25.1353 70.1547V97.5747C25.1353 99.2839 26.5214 100.67 28.2306 100.67H45.5969C47.2198 100.67 48.5345 99.2839 48.5345 97.5747V69.5574H48.5571V69.4948C48.5571 68.18 49.6227 67.1145 50.9374 67.1145V67.0581V67.0594Z" fill="white" style="fill:white;fill-opacity:1;"/>
<path d="M45.5968 100.986H28.2317C26.351 100.986 24.8208 99.456 24.8208 97.5753V70.1553C24.8208 68.2745 26.351 66.7444 28.2317 66.7444H50.9373C51.1113 66.7444 51.2528 66.8859 51.2528 67.0599V67.1163C51.2528 67.2903 51.1113 67.4318 50.9373 67.4318C49.7991 67.4318 48.8725 68.3584 48.8725 69.4967V69.5593C48.8725 69.6006 48.865 69.6394 48.8512 69.6745V97.5753C48.8512 99.456 47.3924 100.986 45.598 100.986H45.5968ZM28.2317 67.3755C26.6991 67.3755 25.4519 68.6226 25.4519 70.1553V97.5753C25.4519 99.1079 26.6991 100.355 28.2317 100.355H45.598C47.043 100.355 48.2201 99.1079 48.2201 97.5753V69.558C48.2201 69.5167 48.2276 69.4766 48.2426 69.4403C48.2589 68.6039 48.6596 67.8588 49.2744 67.3755H28.2317Z" fill="#080717" style="fill:#080717;fill:color(display-p3 0.0314 0.0275 0.0902);fill-opacity:1;"/>
<path d="M43.6353 96.8101V97.5676C43.6353 100.259 45.2657 100.506 45.8805 100.663C45.8805 100.678 44.3904 100.663 44.3904 100.663H24.0226C22.3134 100.663 20.9272 99.2768 20.9272 97.5676V96.8101H43.6353Z" fill="white" style="fill:white;fill-opacity:1;"/>
<path d="M45.3899 100.983C45.1545 100.983 44.8327 100.98 44.387 100.976H24.0217C22.1422 100.976 20.6133 99.4469 20.6133 97.5674V96.4968H43.9475V97.5674C43.9475 99.8727 45.1846 100.172 45.8507 100.333C45.8896 100.342 45.9246 100.351 45.9584 100.36L46.4944 100.496L46.1012 100.886C46.0235 100.962 46.0023 100.983 45.3912 100.983H45.3899ZM21.2394 97.1229V97.5674C21.2394 99.1013 22.4878 100.35 24.0217 100.35H44.3719C43.8097 99.8952 43.3201 99.0826 43.3201 97.5674V97.1229H21.2394Z" fill="black" style="fill:black;fill-opacity:1;"/>
<path d="M35.6151 72.0242H29.2266V72.6553H35.6151V72.0242Z" fill="#2CAACE" style="fill:#2CAACE;fill:color(display-p3 0.1725 0.6667 0.8078);fill-opacity:1;"/>
<path d="M41.3651 74.5776H29.2266V75.2087H41.3651V74.5776Z" fill="#2CAACE" style="fill:#2CAACE;fill:color(display-p3 0.1725 0.6667 0.8078);fill-opacity:1;"/>
<path d="M38.8094 77.1416H29.2266V77.7727H38.8094V77.1416Z" fill="#2CAACE" style="fill:#2CAACE;fill:color(display-p3 0.1725 0.6667 0.8078);fill-opacity:1;"/>
<path d="M34.9765 80.3281H29.2266V80.9592H34.9765V80.3281Z" fill="#2CAACE" style="fill:#2CAACE;fill:color(display-p3 0.1725 0.6667 0.8078);fill-opacity:1;"/>
<path d="M54.6018 57.5039H43.8043C42.1276 57.5039 40.769 58.8638 40.769 60.5392V66.8864C40.769 68.5631 42.1276 69.9217 43.8043 69.9217H44.0773V72.9707L47.3955 69.9217H54.6018C56.2784 69.9217 57.637 68.5631 57.637 66.8864V60.5392C57.637 58.8625 56.2784 57.5039 54.6018 57.5039Z" fill="#2CAACE" style="fill:#2CAACE;fill:color(display-p3 0.1725 0.6667 0.8078);fill-opacity:1;"/>
<path d="M44.0759 73.2537C44.0371 73.2537 43.9982 73.2462 43.9619 73.23C43.8592 73.1849 43.7916 73.0822 43.7916 72.9708V70.206C41.966 70.1997 40.4834 68.7134 40.4834 66.8865V60.5392C40.4834 58.7086 41.9722 57.2197 43.8029 57.2197H54.6003C56.431 57.2197 57.9198 58.7086 57.9198 60.5392V66.8865C57.9198 68.7171 56.431 70.206 54.6003 70.206H47.5043L44.2675 73.1799C44.2136 73.2287 44.1447 73.255 44.0759 73.255V73.2537ZM43.8029 57.787C42.2853 57.787 41.0506 59.0216 41.0506 60.5392V66.8865C41.0506 68.4041 42.2853 69.6387 43.8029 69.6387H44.0759C44.2324 69.6387 44.3601 69.7652 44.3601 69.923V72.3259L47.2025 69.7139C47.2551 69.6663 47.324 69.6387 47.3941 69.6387H54.6003C56.118 69.6387 57.3526 68.4041 57.3526 66.8865V60.5392C57.3526 59.0216 56.118 57.787 54.6003 57.787H43.8029Z" fill="#080717" style="fill:#080717;fill:color(display-p3 0.0314 0.0275 0.0902);fill-opacity:1;"/>
<path d="M38.3492 59.0166L39.3146 59.5838C40.4616 60.2575 40.831 61.9805 40.1148 63.7473C39.2971 65.7658 37.3713 67.0756 35.8136 66.6724L34.8481 66.1051C36.4058 66.5083 38.3317 65.1986 39.1493 63.1801C39.8656 61.4145 39.4962 59.6903 38.3492 59.0166Z" fill="#080717" style="fill:#080717;fill:color(display-p3 0.0314 0.0275 0.0902);fill-opacity:1;"/>
<path d="M34.849 66.1035C33.2913 65.7003 32.6928 63.7369 33.5104 61.7184C34.3294 59.6999 36.2539 58.3902 37.8116 58.7934C39.3693 59.1966 39.9691 61.16 39.1502 63.1785C38.3325 65.197 36.4067 66.5067 34.849 66.1035ZM37.5575 59.422C36.2677 59.0876 34.6725 60.1733 33.995 61.8449C33.3176 63.5165 33.8135 65.1431 35.1032 65.4774C36.3929 65.8118 37.9882 64.7261 38.6656 63.0545C39.3431 61.3829 38.8472 59.7563 37.5575 59.422Z" fill="white" style="fill:white;fill-opacity:1;"/>
<path d="M38.8198 59.2595C39.0014 59.4386 39.1554 59.6527 39.2806 59.8994C39.7377 60.8085 39.7227 62.0168 39.2368 63.2139C38.4029 65.27 36.4245 66.6073 34.8267 66.1941C34.1931 66.03 33.6935 65.6168 33.3829 64.9995C32.9246 64.0904 32.9409 62.8821 33.4255 61.685C34.2594 59.6289 36.2379 58.2916 37.8356 58.7048C38.2163 58.8038 38.5481 58.9916 38.8198 59.2595ZM34.873 66.015C36.3844 66.4057 38.2651 65.1184 39.0653 63.145C39.5236 62.0143 39.5424 60.8323 39.1154 59.9833C38.8299 59.4148 38.3716 59.0354 37.7893 58.8851C36.2779 58.4945 34.3972 59.7817 33.5971 61.7551C33.1388 62.8858 33.12 64.0679 33.5482 64.9168C33.8337 65.4853 34.292 65.8647 34.873 66.015ZM38.4029 59.7955C38.5544 59.9445 38.6834 60.1235 38.7873 60.3301C39.168 61.0877 39.1554 62.0932 38.7522 63.0887C38.0585 64.7991 36.4119 65.9111 35.0809 65.5667C34.5512 65.429 34.1342 65.0846 33.875 64.57C33.4944 63.8124 33.5069 62.8069 33.9101 61.8115C34.6038 60.101 36.2504 58.9891 37.5815 59.3334C37.8995 59.4161 38.1762 59.5726 38.4029 59.7967V59.7955ZM34.3884 64.9707C34.5925 65.1723 34.8417 65.3138 35.1272 65.3877C36.3719 65.7095 37.922 64.6476 38.5807 63.0198C38.9588 62.0869 38.9739 61.1128 38.622 60.4128C38.3879 59.947 38.0109 59.6352 37.5351 59.5112C36.2905 59.1894 34.7415 60.2513 34.0816 61.8791C33.7035 62.8119 33.6885 63.7861 34.0403 64.4861C34.1342 64.6739 34.2519 64.8354 34.3884 64.9707Z" fill="#080717" style="fill:#080717;fill:color(display-p3 0.0314 0.0275 0.0902);fill-opacity:1;"/>
<path d="M38.4012 59.7944C38.5527 59.9434 38.6817 60.1225 38.7856 60.3291C39.1663 61.0867 39.1538 62.0922 38.7506 63.0876C38.0569 64.7981 36.4103 65.91 35.0792 65.5657C34.5495 65.4279 34.1326 65.0836 33.8734 64.5677C33.4927 63.8101 33.5052 62.8046 33.9084 61.8092C34.6021 60.0987 36.2487 58.9868 37.5798 59.3311C37.8978 59.4138 38.1746 59.5703 38.4012 59.7944Z" fill="white" style="fill:white;fill-opacity:1;"/>
<path d="M35.5782 65.7453C35.3991 65.7453 35.2226 65.724 35.0498 65.679C34.4863 65.5337 34.043 65.1668 33.7688 64.6209C33.3719 63.8333 33.3844 62.7927 33.8001 61.7659C34.5151 60.0029 36.2243 58.8609 37.6092 59.219C37.946 59.3067 38.2403 59.472 38.4832 59.7124C38.6448 59.8714 38.7812 60.0617 38.8902 60.2771C39.2871 61.0647 39.2746 62.1053 38.8589 63.1333C38.2328 64.6772 36.8441 65.7466 35.5769 65.7466L35.5782 65.7453ZM37.0745 59.3856C35.9038 59.3856 34.6078 60.3961 34.018 61.8536C33.6273 62.8178 33.6135 63.7882 33.9792 64.5157C34.2233 65.0003 34.614 65.3233 35.1099 65.4523C36.3858 65.7829 37.9711 64.7023 38.6435 63.0444C39.0342 62.0802 39.0492 61.1098 38.6823 60.3823C38.5847 60.1882 38.4632 60.0192 38.3204 59.8789C38.1063 59.6685 37.8484 59.5233 37.5516 59.4457C37.3963 59.4056 37.2373 59.3856 37.0758 59.3856H37.0745Z" fill="black" style="fill:black;fill-opacity:1;"/>
<path d="M40.5139 86.066H39.7851C39.1816 86.066 38.6907 85.5752 38.6907 84.9716C38.6907 84.3681 39.1816 83.8785 39.7851 83.8785H40.5139C41.1174 83.8785 41.6083 84.3693 41.6083 84.9716H43.067C43.067 83.6882 42.1141 82.6263 40.8795 82.4485V80.9609H39.4207V82.4485C38.1861 82.6263 37.2332 83.6882 37.2332 84.9716C37.2332 86.3791 38.3777 87.5248 39.7851 87.5248H40.5139C41.1174 87.5248 41.6083 88.0157 41.6083 88.618C41.6083 89.2202 41.1174 89.7111 40.5139 89.7111H39.7851C39.1816 89.7111 38.6907 89.2202 38.6907 88.618H37.2319C37.2319 89.9014 38.1848 90.9633 39.4195 91.1411V92.6286H40.8783V91.1411C42.1129 90.9633 43.0658 89.9014 43.0658 88.618C43.0658 87.2105 41.9213 86.066 40.5139 86.066Z" fill="#2CAACE" style="fill:#2CAACE;fill:color(display-p3 0.1725 0.6667 0.8078);fill-opacity:1;"/>
<path d="M48.3979 66.2156C48.319 66.2156 48.2576 66.2895 48.2689 66.3733C48.3403 66.8905 48.7623 67.2799 49.2719 67.2799C49.7815 67.2799 50.2035 66.8905 50.2749 66.3733C50.2862 66.2907 50.2248 66.2156 50.1459 66.2156H48.3979Z" fill="white" style="fill:white;fill-opacity:1;"/>
<path d="M52.1373 65.473C51.9332 65.0147 51.386 64.5401 51.386 63.3869V62.9937C51.386 62.047 50.81 61.2394 50.0036 60.9301C50.0073 60.8988 50.0098 60.8675 50.0098 60.8349C50.0098 60.4117 49.6805 60.0686 49.2736 60.0686C48.8666 60.0686 48.5373 60.4117 48.5373 60.8349C48.5373 60.8675 48.5398 60.8988 48.5436 60.9301C47.7372 61.2394 47.1612 62.047 47.1612 62.9937V63.3869C47.1612 64.5388 46.6152 65.0147 46.4099 65.473C46.3047 65.7084 46.4725 65.9788 46.7216 65.9788H51.8242C52.0734 65.9788 52.2412 65.7096 52.136 65.473H52.1373Z" fill="white" style="fill:white;fill-opacity:1;"/>
<path d="M124.292 40.3152L124.493 40.5676L124.292 40.3152C120.811 43.0954 115.869 43.0954 112.387 40.3152L105.684 34.9616C103.418 33.1512 102.098 30.4088 102.098 27.5085V8.78449L118.339 3.20235L134.58 8.78449V27.5085C134.58 30.4088 133.261 33.1519 130.995 34.9615L131.196 35.2139L130.995 34.9615L124.292 40.3152Z" fill="white" stroke="black" style="fill:white;fill-opacity:1;stroke:black;stroke-opacity:1;" stroke-width="0.645939"/>
<path d="M118.339 41.2199C116.451 41.2199 114.599 40.571 113.124 39.3928L106.42 34.0391C104.424 32.4445 103.278 30.064 103.278 27.5086V9.62671L118.339 4.45068L133.4 9.62671V27.5079C133.4 30.0633 132.255 32.4439 130.259 34.0384L123.555 39.3921C122.08 40.5704 120.227 41.2192 118.339 41.2192V41.2199ZM104.378 10.4113V27.5079C104.378 29.7273 105.372 31.7951 107.107 33.1798L113.81 38.5334C115.091 39.5567 116.7 40.1204 118.34 40.1204C119.98 40.1204 121.588 39.5567 122.87 38.5334L129.573 33.1798C131.308 31.7951 132.302 29.7273 132.302 27.5079V10.4113L118.341 5.61249L104.379 10.4113H104.378Z" fill="#2CAACE" style="fill:#2CAACE;fill:color(display-p3 0.1725 0.6667 0.8078);fill-opacity:1;"/>
<path d="M118.171 13.073C115.904 13.073 114.055 14.9227 114.055 17.1908V19.2462H113.98C112.896 19.2462 112.024 20.1186 112.024 21.2016V27.6279C112.024 28.7115 112.896 29.5839 113.98 29.5839H122.362C123.446 29.5839 124.318 28.7115 124.318 27.6279V21.2016C124.318 20.1179 123.446 19.2462 122.362 19.2462H122.289V17.1908C122.289 14.9234 120.438 13.073 118.171 13.073ZM118.171 14.5784C119.631 14.5784 120.783 15.7299 120.783 17.1901V19.2455H115.559V17.1901C115.559 15.7299 116.711 14.5784 118.171 14.5784ZM118.171 21.7386C118.936 21.7386 119.556 22.3593 119.556 23.1246C119.556 23.6911 119.211 24.2007 118.685 24.4106V26.4503C118.685 26.7349 118.456 26.964 118.171 26.964C117.886 26.964 117.657 26.7349 117.657 26.4503V24.4099C117.131 24.2 116.786 23.6911 116.786 23.1246C116.786 22.757 116.932 22.4045 117.192 22.1446C117.452 21.8847 117.804 21.7386 118.172 21.7386H118.171Z" fill="#2CAACE" style="fill:#2CAACE;fill:color(display-p3 0.1725 0.6667 0.8078);fill-opacity:1;"/>
<path d="M109.5 7.53027C109.5 11.1199 106.676 14.0137 103.212 14.0137C99.747 14.0137 96.9226 11.1199 96.9226 7.53027C96.9226 3.94069 99.747 1.04685 103.212 1.04685C106.676 1.04685 109.5 3.94069 109.5 7.53027Z" fill="white" stroke="black" style="fill:white;fill-opacity:1;stroke:black;stroke-opacity:1;" stroke-width="0.645939"/>
<path d="M103.455 7.23705H102.97C102.567 7.23705 102.242 6.90903 102.242 6.50859C102.242 6.10815 102.569 5.78013 102.97 5.78013H103.455C103.857 5.78013 104.183 6.10602 104.183 6.50859H105.154C105.154 5.65233 104.519 4.94518 103.696 4.8259V3.83545H102.725V4.8259C101.903 4.94518 101.267 5.65233 101.267 6.50859C101.267 7.44579 102.029 8.21046 102.968 8.21046H103.453C103.855 8.21046 104.181 8.53635 104.181 8.93891C104.181 9.34148 103.853 9.66737 103.453 9.66737H102.968C102.565 9.66737 102.239 9.34148 102.239 8.93891H101.269C101.269 9.79517 101.903 10.5023 102.727 10.6216V11.6142H103.698V10.6216C104.519 10.5023 105.156 9.79517 105.156 8.93891C105.156 8.00172 104.394 7.23705 103.455 7.23705Z" fill="#2CAACE" style="fill:#2CAACE;fill:color(display-p3 0.1725 0.6667 0.8078);fill-opacity:1;"/>
<path d="M138.605 30.6721C138.605 30.6721 138.606 30.6721 138.606 30.6721H138.604C138.604 30.6721 138.604 30.6721 138.605 30.6721C138.512 30.6716 138.43 30.6214 138.385 30.5412L137.82 29.509L136.791 28.9452C136.71 28.8998 136.66 28.8168 136.66 28.7236C136.66 28.6305 136.71 28.5474 136.791 28.5021L137.82 27.9357L138.385 26.9035C138.473 26.7424 138.737 26.7424 138.825 26.9035L139.389 27.9357L140.419 28.5021C140.499 28.5474 140.55 28.6305 140.55 28.7236C140.55 28.8168 140.499 28.8998 140.419 28.9452L139.389 29.509L138.825 30.5412C138.78 30.6214 138.697 30.6716 138.605 30.6721Z" fill="#2CAACE" style="fill:#2CAACE;fill:color(display-p3 0.1725 0.6667 0.8078);fill-opacity:1;"/>
<path d="M97.3781 19.393C97.2852 19.393 97.2023 19.3427 97.1571 19.2621L96.5922 18.23L95.5627 17.6661C95.4823 17.6208 95.4321 17.5377 95.4321 17.4446C95.4321 17.3514 95.4823 17.2684 95.5627 17.223L96.5922 16.6566L97.1571 15.6245C97.245 15.4634 97.5086 15.4634 97.5965 15.6245L98.1615 16.6566L99.1909 17.223C99.2713 17.2684 99.3215 17.3514 99.3215 17.4446C99.3215 17.5377 99.2713 17.6208 99.1909 17.6661L98.1615 18.23L97.5965 19.2621C97.5513 19.3427 97.4685 19.393 97.3756 19.393H97.3781ZM96.208 17.4421L96.901 17.8222C96.9437 17.8448 96.9788 17.8801 97.0014 17.9229L97.3806 18.6177L97.7597 17.9229C97.7823 17.8801 97.8175 17.8448 97.8602 17.8222L98.5532 17.4421L97.8602 17.0619C97.8175 17.0393 97.7823 17.004 97.7597 16.9612L97.3806 16.2664L97.0014 16.9612C96.9788 17.004 96.9437 17.0393 96.901 17.0619L96.208 17.4421Z" fill="#2CAACE" style="fill:#2CAACE;fill:color(display-p3 0.1725 0.6667 0.8078);fill-opacity:1;"/>
<path d="M188.293 89.6873H223.585C226.321 89.6873 228.538 89.12 228.538 84.7343V63.9254C228.538 61.19 226.321 58.9725 223.585 58.9725H188.293C185.557 58.9725 183.34 61.19 183.34 63.9254V84.7343C183.34 87.4697 183.928 89.6873 188.293 89.6873Z" fill="white" style="fill:white;fill-opacity:1;"/>
<path d="M225.141 90.0726H186.738C184.651 90.0726 182.956 88.375 182.956 86.2901V62.3706C182.956 60.2857 184.653 58.5881 186.738 58.5881H225.139C227.226 58.5881 228.923 60.2857 228.923 62.3706V86.2884C228.923 88.375 227.226 90.0709 225.139 90.0709L225.141 90.0726ZM186.738 59.3595C185.078 59.3595 183.727 60.7101 183.727 62.3706V86.2884C183.727 87.9489 185.078 89.3013 186.74 89.3013H225.141C226.801 89.3013 228.154 87.9506 228.154 86.2884V62.3706C228.154 60.7101 226.801 59.3578 225.141 59.3578H186.738V59.3595Z" fill="#080717" style="fill:#080717;fill:color(display-p3 0.0314 0.0275 0.0902);fill-opacity:1;"/>
<path d="M193.244 69.0168H189.246V73.0149H193.244V69.0168Z" fill="#2CAACE" style="fill:#2CAACE;fill:color(display-p3 0.1725 0.6667 0.8078);fill-opacity:1;"/>
<path d="M212.49 70.738H195.743V71.2382H212.49V70.738Z" fill="#080717" style="fill:#080717;fill:color(display-p3 0.0314 0.0275 0.0902);fill-opacity:1;"/>
<path d="M191.497 71.8685L190.07 70.442L190.424 70.0884L191.497 71.1595L194.734 67.9226L195.089 68.2763L191.497 71.8685Z" fill="#080717" style="fill:#080717;fill:color(display-p3 0.0314 0.0275 0.0902);fill-opacity:1;"/>
<path d="M193.244 76.2349H189.246V80.2329H193.244V76.2349Z" fill="#2CAACE" style="fill:#2CAACE;fill:color(display-p3 0.1725 0.6667 0.8078);fill-opacity:1;"/>
<path d="M212.49 77.9563H195.743V78.4565H212.49V77.9563Z" fill="#080717" style="fill:#080717;fill:color(display-p3 0.0314 0.0275 0.0902);fill-opacity:1;"/>
<path d="M191.497 79.0867L190.07 77.6603L190.424 77.3066L191.497 78.3777L194.734 75.1409L195.089 75.4945L191.497 79.0867Z" fill="#080717" style="fill:#080717;fill:color(display-p3 0.0314 0.0275 0.0902);fill-opacity:1;"/>
<path d="M220.379 77.9174H219.399C218.587 77.9174 217.927 77.2572 217.927 76.4455C217.927 75.6337 218.587 74.9752 219.399 74.9752H220.379C221.191 74.9752 221.851 75.6354 221.851 76.4455H223.813C223.813 74.7193 222.532 73.2911 220.871 73.052V71.0513H218.909V73.052C217.249 73.2911 215.967 74.7193 215.967 76.4455C215.967 78.3384 217.506 79.8794 219.399 79.8794H220.379C221.191 79.8794 221.851 80.5395 221.851 81.3496C221.851 82.1597 221.191 82.8198 220.379 82.8198H219.399C218.587 82.8198 217.927 82.1597 217.927 81.3496H215.965C215.965 83.0758 217.247 84.5039 218.907 84.7431V86.7438H220.869V84.7431C222.53 84.5039 223.812 83.0758 223.812 81.3496C223.812 79.4567 222.272 77.9174 220.379 77.9174Z" fill="#2CAACE" style="fill:#2CAACE;fill:color(display-p3 0.1725 0.6667 0.8078);fill-opacity:1;"/>
<path d="M179.254 53.331C182.096 50.4873 186.705 50.4873 189.547 53.331C191.872 55.6561 192.295 59.1636 190.815 61.9179L191.902 65.9778L187.844 64.8908C185.087 66.3713 181.581 65.95 179.254 63.623C176.412 60.7812 176.412 56.1728 179.254 53.331Z" fill="#2CAACE" style="fill:#2CAACE;fill:color(display-p3 0.1725 0.6667 0.8078);fill-opacity:1;"/>
<path d="M183.39 60.8054C183.266 60.8054 183.141 60.7576 183.046 60.6599L181.7 59.2819C181.509 59.0865 181.509 58.7714 181.7 58.576C181.891 58.3806 182.198 58.3806 182.389 58.576L183.39 59.601L186.882 56.0255C187.073 55.83 187.381 55.83 187.572 56.0255C187.763 56.2209 187.763 56.536 187.572 56.7314L183.737 60.6579C183.641 60.7556 183.517 60.8034 183.392 60.8034L183.39 60.8054Z" fill="white" style="fill:white;fill-opacity:1;"/>
<path d="M232.636 49.3967C232.642 49.3848 232.648 49.3713 232.656 49.3609L234.067 47.2537C234.143 47.1403 234.297 47.1104 234.411 47.185C234.525 47.2611 234.558 47.4134 234.48 47.5268L233.069 49.634C232.993 49.7474 232.839 49.7773 232.725 49.7026C232.621 49.634 232.586 49.5042 232.635 49.3967H232.636Z" fill="black" style="fill:black;fill-opacity:1;"/>
<path d="M234.928 51.1967C234.938 51.1713 234.955 51.1474 234.975 51.128L236.671 49.3551C236.766 49.2566 236.924 49.2521 237.023 49.3461C237.123 49.4401 237.127 49.5968 237.032 49.6953L235.336 51.4683C235.241 51.5668 235.083 51.5712 234.984 51.4772C234.905 51.4041 234.886 51.2907 234.928 51.1967Z" fill="black" style="fill:black;fill-opacity:1;"/>
<path d="M230.814 46.6778C230.864 46.5673 230.99 46.5076 231.109 46.5405C231.241 46.5778 231.318 46.7151 231.279 46.8464L230.895 48.1821C230.859 48.3119 230.719 48.3895 230.587 48.3507C230.455 48.3134 230.378 48.1761 230.417 48.0448L230.801 46.7091C230.804 46.6987 230.808 46.6852 230.813 46.6763L230.814 46.6778Z" fill="black" style="fill:black;fill-opacity:1;"/>
<path d="M236.315 53.3609C236.343 53.2982 236.397 53.246 236.471 53.2236L238.109 52.7401C238.241 52.6998 238.38 52.7759 238.419 52.9057C238.46 53.037 238.383 53.1743 238.252 53.2131L236.614 53.6967C236.482 53.737 236.343 53.6608 236.304 53.531C236.286 53.4713 236.292 53.4116 236.315 53.3609Z" fill="black" style="fill:black;fill-opacity:1;"/>
<path d="M218.518 54.2982L218.38 64.3945C218.363 65.6771 219.388 66.731 220.671 66.7484L230.767 66.8859C232.05 66.9033 233.104 65.8778 233.121 64.5952L233.259 54.4989C233.276 53.2163 232.25 52.1625 230.968 52.145L220.872 52.0075C219.589 51.9901 218.535 53.0156 218.518 54.2982Z" fill="#2CAACE" style="fill:#2CAACE;fill:color(display-p3 0.1725 0.6667 0.8078);fill-opacity:1;"/>
<path d="M225.644 56.7096C225.627 57.8832 224.663 58.8229 223.489 58.8063C222.315 58.7898 221.376 57.8253 221.392 56.6516C221.409 55.478 222.373 54.5384 223.547 54.5549C224.721 54.5714 225.66 55.5359 225.644 56.7096Z" fill="white" style="fill:white;fill-opacity:1;"/>
<path d="M218.379 64.3955L218.41 62.1037L219.455 61.0873C220.228 60.3356 221.463 60.3521 222.215 61.1251C222.926 61.8567 224.096 61.8721 224.828 61.1605L228.931 57.168C229.905 56.2201 231.464 56.2413 232.412 57.2153L233.21 58.0343L233.12 64.5964C233.102 65.8788 232.049 66.9035 230.767 66.887L220.67 66.7487C219.387 66.7322 218.361 65.6779 218.379 64.3955Z" fill="#080717" style="fill:#080717;fill:color(display-p3 0.0314 0.0275 0.0902);fill-opacity:1;"/>
<path d="M115.7 148.536V148.655C115.638 150.379 114.223 151.756 112.487 151.756H90.7368C88.9623 151.756 87.5217 150.314 87.5217 148.536V121.239C87.5217 119.462 88.962 118.022 90.7368 118.022H107.546L115.7 126.185V148.536Z" fill="white" stroke="black" style="fill:white;fill-opacity:1;stroke:black;stroke-opacity:1;" stroke-width="0.645939"/>
<path d="M107.681 117.699V123.772C107.681 125.031 108.699 126.051 109.956 126.051H116.022L107.681 117.699Z" fill="black" style="fill:black;fill-opacity:1;"/>
<path d="M101.33 127.735H92.7353C92.5798 127.735 92.4541 127.577 92.4541 127.379C92.4541 127.181 92.5798 127.023 92.7353 127.023H101.33C101.486 127.023 101.611 127.181 101.611 127.379C101.611 127.577 101.486 127.735 101.33 127.735Z" fill="black" style="fill:black;fill-opacity:1;"/>
<path d="M101.33 141.278H92.7353C92.5798 141.278 92.4541 141.12 92.4541 140.922C92.4541 140.724 92.5798 140.567 92.7353 140.567H101.33C101.486 140.567 101.611 140.724 101.611 140.922C101.611 141.12 101.486 141.278 101.33 141.278Z" fill="black" style="fill:black;fill-opacity:1;"/>
<path d="M109.817 130.405H93.0037C92.7012 130.405 92.4541 130.248 92.4541 130.05C92.4541 129.851 92.7012 129.694 93.0037 129.694H109.817C110.121 129.694 110.366 129.851 110.366 130.05C110.366 130.248 110.121 130.405 109.817 130.405Z" fill="black" style="fill:black;fill-opacity:1;"/>
<path d="M109.817 133.079H93.0037C92.7012 133.079 92.4541 132.922 92.4541 132.724C92.4541 132.526 92.7012 132.368 93.0037 132.368H109.817C110.121 132.368 110.366 132.526 110.366 132.724C110.366 132.922 110.121 133.079 109.817 133.079Z" fill="black" style="fill:black;fill-opacity:1;"/>
<path d="M109.817 135.761H93.0037C92.7012 135.761 92.4541 135.603 92.4541 135.405C92.4541 135.207 92.7012 135.05 93.0037 135.05H109.817C110.121 135.05 110.366 135.207 110.366 135.405C110.366 135.603 110.121 135.761 109.817 135.761Z" fill="black" style="fill:black;fill-opacity:1;"/>
<path d="M109.817 138.434H93.0037C92.7012 138.434 92.4541 138.276 92.4541 138.078C92.4541 137.88 92.7012 137.723 93.0037 137.723H109.817C110.121 137.723 110.366 137.88 110.366 138.078C110.366 138.276 110.121 138.434 109.817 138.434Z" fill="black" style="fill:black;fill-opacity:1;"/>
<path d="M101.33 125.051H92.7353C92.5798 125.051 92.4541 124.901 92.4541 124.718C92.4541 124.535 92.5798 124.386 92.7353 124.386H101.33C101.486 124.386 101.611 124.535 101.611 124.718C101.611 124.901 101.486 125.051 101.33 125.051Z" fill="black" style="fill:black;fill-opacity:1;"/>
<circle cx="87.2191" cy="119.175" r="5.98076" fill="white" stroke="black" style="fill:white;fill-opacity:1;stroke:black;stroke-opacity:1;" stroke-width="0.484454"/>
<path d="M87.2651 121.903L88.8749 122.871H88.9184L88.9402 122.831V120.266L88.991 120.226C89.4405 119.866 89.7632 119.382 89.9191 118.826C90.075 118.269 90.0605 117.687 89.872 117.141C89.6798 116.596 89.3318 116.13 88.8604 115.795C88.3927 115.461 87.838 115.286 87.2615 115.286C86.685 115.286 86.1339 115.464 85.6626 115.795C85.1948 116.13 84.8468 116.596 84.6546 117.141C84.4624 117.687 84.4479 118.269 84.6039 118.826C84.7598 119.382 85.0824 119.866 85.532 120.226L85.5828 120.266V122.831L85.5393 122.991L85.6082 122.871H85.6553L87.2651 121.903ZM88.487 122.107L87.2615 121.372L86.036 122.107V120.553L86.2245 120.63C86.5545 120.764 86.9025 120.83 87.2579 120.83H87.2615C87.6168 120.83 87.9649 120.761 88.2948 120.63L88.4834 120.553V122.107H88.487ZM84.9519 118.058C84.9519 117.44 85.1912 116.858 85.6299 116.417C86.065 115.981 86.6487 115.737 87.2651 115.737C87.8815 115.737 88.4616 115.977 88.9003 116.417C89.3354 116.854 89.5783 117.436 89.5783 118.058C89.5783 118.68 89.339 119.258 88.9003 119.699C88.4652 120.135 87.8851 120.379 87.2651 120.379C86.6451 120.379 86.0686 120.139 85.6299 119.699C85.1948 119.262 84.9519 118.68 84.9519 118.058Z" fill="black" style="fill:black;fill-opacity:1;"/>
<g clip-path="url(#clip0_2343_1505)">
<path d="M88.0406 119.546C87.9879 119.546 87.9345 119.536 87.8841 119.514L87.2175 119.23L86.551 119.514C86.4226 119.569 86.2783 119.553 86.1651 119.472C86.0518 119.391 85.992 119.262 86.0057 119.124L86.0749 118.412L85.5938 117.876C85.5015 117.773 85.4719 117.633 85.5152 117.501C85.5584 117.371 85.6659 117.274 85.8023 117.244L86.5113 117.089L86.8807 116.473C86.9521 116.354 87.0776 116.283 87.2175 116.283C87.3575 116.283 87.4837 116.354 87.5544 116.473L87.9237 117.089L88.6328 117.245C88.7691 117.275 88.8766 117.371 88.9199 117.502C88.9632 117.633 88.9336 117.773 88.8413 117.876L88.3601 118.413L88.4294 119.125C88.4424 119.262 88.3832 119.392 88.27 119.473C88.2014 119.522 88.1214 119.547 88.0406 119.547V119.546ZM87.2175 118.722C87.2709 118.722 87.3236 118.733 87.3733 118.754L87.9086 118.983L87.853 118.411C87.8429 118.305 87.8783 118.2 87.949 118.12L88.3349 117.69L87.765 117.565C87.6597 117.541 87.5681 117.476 87.5133 117.384L87.2168 116.889L86.9203 117.384C86.8655 117.476 86.7739 117.541 86.6686 117.565L86.0995 117.69L86.4854 118.12C86.5568 118.2 86.5921 118.306 86.5813 118.412L86.5258 118.984L87.061 118.755C87.1108 118.734 87.1634 118.723 87.2168 118.723L87.2175 118.722Z" fill="black" style="fill:black;fill-opacity:1;"/>
</g>
<path d="M114.173 118.289C114.173 118.289 114.172 118.289 114.172 118.289H114.174C114.174 118.289 114.173 118.289 114.173 118.289C114.265 118.289 114.348 118.238 114.393 118.158L114.958 117.126L115.987 116.562C116.067 116.517 116.118 116.434 116.118 116.341C116.118 116.247 116.067 116.164 115.987 116.119L114.958 115.553L114.393 114.52C114.305 114.359 114.041 114.359 113.953 114.52L113.388 115.553L112.359 116.119C112.279 116.164 112.228 116.247 112.228 116.341C112.228 116.434 112.279 116.517 112.359 116.562L113.388 117.126L113.953 118.158C113.998 118.238 114.081 118.289 114.173 118.289Z" fill="#2CAACE" style="fill:#2CAACE;fill:color(display-p3 0.1725 0.6667 0.8078);fill-opacity:1;"/>
<path d="M82.402 141.344C82.3091 141.344 82.2262 141.294 82.181 141.213L81.6161 140.181L80.5866 139.617C80.5063 139.572 80.4561 139.489 80.4561 139.396C80.4561 139.303 80.5063 139.22 80.5866 139.174L81.6161 138.608L82.181 137.576C82.2689 137.415 82.5326 137.415 82.6204 137.576L83.1854 138.608L84.2149 139.174C84.2952 139.22 84.3454 139.303 84.3454 139.396C84.3454 139.489 84.2952 139.572 84.2149 139.617L83.1854 140.181L82.6204 141.213C82.5752 141.294 82.4924 141.344 82.3995 141.344H82.402ZM81.2319 139.393L81.9249 139.773C81.9676 139.796 82.0028 139.831 82.0254 139.874L82.4045 140.569L82.7836 139.874C82.8062 139.831 82.8414 139.796 82.8841 139.773L83.5771 139.393L82.8841 139.013C82.8414 138.99 82.8062 138.955 82.7836 138.912L82.4045 138.218L82.0254 138.912C82.0028 138.955 81.9676 138.99 81.9249 139.013L81.2319 139.393Z" fill="#2CAACE" style="fill:#2CAACE;fill:color(display-p3 0.1725 0.6667 0.8078);fill-opacity:1;"/>
<path d="M129.345 264.695L138.266 260.252L142.213 260.256L143.716 261.604L141.486 264.806L137.244 267.059L135.87 267.37H131.341L129.345 264.695Z" fill="white" style="fill:white;fill-opacity:1;"/>
<path d="M202.625 255.229L223.508 201.349C228.579 188.269 233.471 183.611 246.813 179.594L261.542 176.882L283.112 180.037C294.123 182.925 306.261 194.4 306.782 205.98L202.625 255.229Z" fill="white" style="fill:white;fill-opacity:1;"/>
<path d="M203.498 255.591C203.403 255.591 203.305 255.574 203.214 255.537C202.804 255.378 202.605 254.918 202.76 254.513L223.643 200.633C228.829 187.252 233.947 182.472 247.455 178.405C247.483 178.398 247.513 178.391 247.54 178.385L262.269 175.672C262.354 175.659 262.442 175.655 262.526 175.669L284.095 178.824C284.126 178.827 284.153 178.834 284.18 178.841C293.233 181.216 303.753 190.208 307.542 200.048C308.375 202.204 306.998 203.487 306.179 201.393C306.074 201.065 305.164 199.653 305.164 199.653C302.076 191.154 293.862 183.029 283.822 180.381L262.428 177.253L247.871 179.935C234.824 183.871 230.142 188.249 225.121 201.207L204.239 255.087C204.117 255.401 203.816 255.594 203.498 255.594V255.591Z" fill="black" style="fill:black;fill-opacity:1;"/>
<path d="M209.838 238.562C209.838 238.562 224.808 202.92 225.904 198.724C226.238 198.495 228.096 192.995 231.089 189.63C234.168 186.178 239.55 183.418 239.916 183.216L245.71 181.02L246.834 192.569C246.834 192.569 249.976 198.947 261.113 195.147C270.646 192.049 279.201 184.908 283.826 179.925C283.826 179.925 298.132 184.905 303.589 196.167C309.864 209.115 313.778 219.131 324.877 240.045C328.307 246.507 305.471 279.062 286.297 270.988H236.815L232.531 249.517L228.735 256.766C226.022 263.222 220.995 267.539 213.992 267.705L203.651 267.951L201.509 247.734L206.269 246.068L209.838 238.558V238.562Z" fill="white" style="fill:white;fill-opacity:1;"/>
<path d="M143.576 266.191C143.076 265.637 142.835 264.894 142.913 264.154C143.028 263.06 143.826 262.145 144.892 261.877C145.186 261.803 145.403 261.553 145.43 261.252C145.46 260.952 145.295 260.665 145.02 260.536C142.571 259.395 139.777 259.435 137.365 260.651L129.53 264.6C129.496 264.617 129.469 264.634 129.439 264.654C129.405 264.665 129.375 264.678 129.344 264.695L128.008 265.367C126.333 266.269 124.446 266.745 122.541 266.745H121.648C120.653 266.745 120.112 266.073 119.943 265.445C119.771 264.816 119.889 263.962 120.698 263.479L144.855 251.358C146.421 250.571 148.224 250.372 149.926 250.797L162.913 254.044C164.252 254.378 165.673 254.392 166.962 254.091L198.054 249.456C198.095 249.449 198.135 249.439 198.176 249.426L200.179 248.757L202.953 266.931C202.96 266.979 202.983 267.016 202.997 267.063H145.525C144.78 267.063 144.067 266.745 143.569 266.191H143.576Z" fill="white" style="fill:white;fill-opacity:1;"/>
<path d="M133.018 268.174H132.125C130.261 268.174 129.114 266.748 128.945 265.34C128.898 264.948 129.175 264.59 129.571 264.543C129.96 264.492 130.319 264.772 130.366 265.168C130.458 265.928 131.05 266.742 132.125 266.742H133.018C134.919 266.742 136.811 266.265 138.485 265.367L141.75 263.61C142.098 263.424 142.531 263.553 142.717 263.901C142.903 264.249 142.774 264.681 142.426 264.87L139.162 266.627C137.281 267.64 135.156 268.174 133.018 268.174Z" fill="black" style="fill:black;fill-opacity:1;"/>
<path d="M289.492 243.913C289.431 243.913 289.367 243.906 289.306 243.889L276.935 240.558C276.552 240.454 276.326 240.065 276.43 239.68C276.535 239.298 276.928 239.072 277.307 239.177L289.678 242.508C290.06 242.609 290.287 243.001 290.182 243.386C290.097 243.707 289.807 243.913 289.492 243.913Z" fill="black" style="fill:black;fill-opacity:1;"/>
<path d="M241.65 212.956L236.417 231.032C236.417 231.032 233.562 242.926 249.979 243.166L241.65 212.956Z" fill="white" style="fill:white;fill-opacity:1;"/>
<path d="M249.98 243.879H249.97C244.059 243.791 239.871 242.22 237.527 239.2C234.652 235.498 235.677 231.049 235.724 230.863L240.968 212.753C241.079 212.375 241.475 212.152 241.854 212.264C242.233 212.375 242.453 212.77 242.344 213.149L237.111 231.228C237.111 231.228 236.215 235.184 238.674 238.332C240.741 240.98 244.55 242.362 249.996 242.443C250.392 242.447 250.707 242.774 250.703 243.17C250.7 243.562 250.379 243.875 249.99 243.875V243.882L249.98 243.879Z" fill="black" style="fill:black;fill-opacity:1;"/>
<path d="M282.35 242.011C282.056 242.011 281.778 241.825 281.674 241.531L274.282 220.324C274.15 219.949 274.35 219.543 274.722 219.412C275.097 219.28 275.503 219.479 275.635 219.851L283.027 241.058C283.155 241.433 282.959 241.838 282.587 241.97C282.509 241.997 282.428 242.011 282.35 242.011Z" fill="black" style="fill:black;fill-opacity:1;"/>
<path d="M235.145 271.751L231.204 249.037C231.129 248.649 231.386 248.274 231.776 248.203C232.165 248.128 232.537 248.389 232.611 248.774L237.053 271.751H235.526H235.145Z" fill="black" style="fill:black;fill-opacity:1;"/>
<path d="M203.004 267.775C202.648 267.775 202.341 267.508 202.297 267.147L199.945 248.122C199.895 247.73 200.176 247.372 200.568 247.325C200.96 247.274 201.319 247.554 201.366 247.946L203.717 266.975C203.768 267.366 203.487 267.725 203.095 267.772C203.064 267.779 203.037 267.779 203.007 267.779L203.004 267.775Z" fill="black" style="fill:black;fill-opacity:1;"/>
<path d="M224.651 202.139C224.242 203.592 222.618 207.696 217.537 220.553C213.877 229.809 210.203 239.045 210.203 239.045C210.193 239.069 210.179 239.092 210.169 239.116L206.201 246.544C206.117 246.706 205.971 246.828 205.795 246.886L198.18 249.422C198.14 249.436 198.102 249.446 198.058 249.453L166.966 254.088C165.674 254.392 164.253 254.378 162.914 254.04L149.926 250.794C148.228 250.368 146.425 250.568 144.855 251.355L120.698 263.472C119.889 263.955 119.768 264.809 119.944 265.438C120.116 266.066 120.657 266.738 121.649 266.738H122.542C124.443 266.738 126.334 266.262 128.008 265.364L137.366 260.648C139.703 259.469 142.393 259.391 144.788 260.428L152.426 258.519C152.809 258.425 153.198 258.658 153.296 259.04C153.391 259.425 153.157 259.813 152.775 259.908L144.899 261.877H144.889C143.824 262.144 143.032 263.06 142.914 264.154C142.836 264.894 143.079 265.637 143.577 266.188C144.074 266.742 144.788 267.059 145.535 267.059H213.518C219.401 267.059 224.77 263.6 227.202 258.249L239.594 230.978C239.715 230.704 240 230.539 240.294 230.559C240.592 230.579 240.849 230.782 240.93 231.069L246.999 251.446L287.563 270.069C294.847 273.413 302.895 271.974 308.568 266.32C314.241 260.665 327.421 248.172 324.099 240.886C315.57 222.192 310.107 210.277 304.613 198.258L306.782 198.265C312.272 210.288 316.873 221.601 325.398 240.295C328.977 248.139 315.682 261.246 309.576 267.333C305.648 271.248 300.665 273.285 295.527 273.285C292.668 273.285 289.766 272.657 286.965 271.37L246.106 252.611C245.92 252.523 245.778 252.361 245.72 252.166L240.104 233.312L228.501 258.844C225.839 264.705 219.956 268.495 213.515 268.495H145.532C144.382 268.495 143.282 268.005 142.511 267.151C141.74 266.296 141.371 265.151 141.49 264.006C141.601 262.938 142.132 261.982 142.92 261.32C141.28 260.945 139.551 261.155 138.009 261.928L128.668 266.634C126.801 267.64 124.676 268.171 122.542 268.171H121.649C120.167 268.171 118.953 267.249 118.56 265.819C118.168 264.391 118.736 262.979 120.008 262.222L144.213 250.081C146.087 249.142 148.238 248.905 150.271 249.412L163.258 252.659C164.382 252.939 165.569 252.949 166.696 252.689L197.781 248.051L205.064 245.622L208.877 238.478C214.516 224.32 222.96 202.974 223.369 201.558C223.369 201.552 223.369 201.545 223.369 201.538C223.4 201.346 223.508 201.173 223.674 201.062" fill="black" style="fill:black;fill-opacity:1;"/>
<path d="M218.383 224.938L201.573 199.137L180.569 195.147L165.636 201.316C166.171 202.684 167.439 203.63 168.904 203.758L172.91 203.913L163.042 208.501C161.766 209.092 161.733 210.899 162.984 211.537L165.308 212.727L163.884 213.47C163.356 213.747 163.201 214.426 163.556 214.902C165.274 217.216 168.268 218.192 171.022 217.331L180.947 214.223L172.511 222.023L172.933 222.445C174.74 224.259 177.504 224.719 179.804 223.594L188.755 219.206L196.921 232.103C199.611 236.343 203.823 239.39 208.691 240.616L216.529 242.585L271.674 263.388L276.166 240.038L218.386 224.928V224.935L218.383 224.938Z" fill="white" style="fill:white;fill-opacity:1;"/>
<path d="M271.674 264.107C271.589 264.107 271.502 264.093 271.42 264.06L216.313 243.275L208.515 241.312C203.444 240.035 199.114 236.903 196.316 232.488L188.492 220.135L180.116 224.239C177.538 225.499 174.449 224.982 172.423 222.952L172 222.53C171.861 222.391 171.79 222.205 171.79 222.01C171.794 221.814 171.878 221.631 172.02 221.499L178.126 215.858L171.232 218.016C168.191 218.969 164.876 217.888 162.978 215.331C162.684 214.936 162.579 214.432 162.687 213.953C162.795 213.473 163.113 213.064 163.546 212.838L163.746 212.733L162.656 212.176C161.831 211.754 161.327 210.916 161.347 209.987C161.364 209.061 161.899 208.24 162.738 207.852L169.92 204.514L168.874 204.474C167.091 204.315 165.61 203.207 164.97 201.575C164.828 201.211 165.004 200.802 165.363 200.653L180.291 194.485C180.42 194.431 180.562 194.417 180.697 194.445L201.702 198.434C201.895 198.471 202.06 198.582 202.169 198.745L218.826 224.31L276.339 239.346C276.701 239.44 276.931 239.802 276.86 240.173L272.368 263.519C272.327 263.725 272.198 263.904 272.012 264.009C271.904 264.07 271.782 264.1 271.664 264.1H271.667L271.674 264.107ZM188.755 218.493C188.996 218.493 189.226 218.615 189.361 218.824L197.531 231.722C200.129 235.826 204.158 238.738 208.87 239.923L216.709 241.896C216.735 241.903 216.759 241.91 216.786 241.92L271.136 262.421L275.341 240.565L218.207 225.627C218.035 225.584 217.886 225.475 217.788 225.323L201.144 199.778L180.647 195.887L166.635 201.677C167.159 202.454 168.008 202.961 168.969 203.045L172.94 203.197C173.269 203.21 173.549 203.447 173.614 203.771C173.678 204.096 173.512 204.423 173.215 204.562L163.346 209.149C163.001 209.308 162.792 209.632 162.785 210.014C162.778 210.396 162.978 210.727 163.316 210.899L165.64 212.085C165.877 212.206 166.029 212.449 166.033 212.72C166.033 212.987 165.884 213.233 165.65 213.355L164.223 214.101C164.135 214.149 164.104 214.226 164.094 214.267C164.084 214.308 164.077 214.392 164.138 214.473C165.674 216.544 168.357 217.415 170.816 216.645L180.741 213.537C181.059 213.436 181.404 213.571 181.574 213.861C181.739 214.152 181.685 214.517 181.442 214.743L173.553 222.036C175.146 223.547 177.517 223.918 179.497 222.945L188.451 218.557C188.552 218.51 188.661 218.483 188.766 218.483H188.755V218.493Z" fill="black" style="fill:black;fill-opacity:1;"/>
<path d="M169.175 206.233C168.898 206.233 168.63 206.071 168.515 205.798C168.36 205.433 168.529 205.014 168.894 204.859L181.164 199.65C181.289 199.599 181.428 199.582 181.557 199.602L193.177 201.491C193.569 201.555 193.83 201.92 193.769 202.311C193.705 202.703 193.339 202.967 192.947 202.903L181.529 201.048L169.449 206.176C169.358 206.217 169.263 206.233 169.168 206.233H169.175Z" fill="black" style="fill:black;fill-opacity:1;"/>
<path d="M163.58 214.064C163.309 214.064 163.049 213.909 162.927 213.645C162.761 213.287 162.92 212.862 163.279 212.696L178.776 205.582C178.905 205.525 179.05 205.504 179.189 205.525L190.501 207.369C190.89 207.433 191.154 207.798 191.09 208.19C191.025 208.581 190.657 208.845 190.268 208.781L179.172 206.97L163.874 213.993C163.78 214.037 163.678 214.061 163.577 214.061L163.58 214.064Z" fill="black" style="fill:black;fill-opacity:1;"/>
<path d="M179.949 215.503C179.77 215.503 179.591 215.435 179.452 215.3C179.168 215.027 179.161 214.574 179.435 214.287L182.436 211.179C182.554 211.058 182.71 210.98 182.879 210.966L188.502 210.402C188.894 210.362 189.246 210.649 189.286 211.041C189.327 211.433 189.039 211.784 188.644 211.824L183.282 212.362L180.464 215.28C180.325 215.425 180.136 215.5 179.949 215.5V215.503Z" fill="black" style="fill:black;fill-opacity:1;"/>
<path d="M240.706 127.977C248.31 127.977 254.475 121.822 254.475 114.228C254.475 106.635 248.31 100.479 240.706 100.479C233.102 100.479 226.938 106.635 226.938 114.228C226.938 121.822 233.102 127.977 240.706 127.977Z" fill="#080717" style="fill:#080717;fill:color(display-p3 0.0314 0.0275 0.0902);fill-opacity:1;"/>
<path d="M275.398 176.159L266.021 146.648L241.776 154.33L250.223 180.911C246.725 184.634 244.469 188.877 246.833 192.573C252.621 201.619 269.228 192.573 276.528 186.039L283.825 179.506L275.398 176.162V176.159Z" fill="white" style="fill:white;fill-opacity:1;"/>
<path d="M252.716 197.005C249.868 196.616 247.679 195.258 246.214 192.968C244.025 189.549 245.094 185.431 249.394 180.726L241.075 154.552C240.953 154.164 241.166 153.752 241.556 153.627L265.801 145.945C265.987 145.884 266.19 145.905 266.362 145.992C266.535 146.083 266.667 146.236 266.724 146.421L275.997 175.601L284.099 178.817C284.336 178.912 284.508 179.121 284.552 179.371C284.596 179.621 284.508 179.878 284.319 180.047L277.022 186.58C272.242 190.86 262.289 197.116 254.482 197.116C253.879 197.116 253.291 197.079 252.716 197.001V197.005ZM275.128 176.844C274.921 176.763 274.766 176.594 274.698 176.381L265.544 147.57L242.706 154.806L250.93 180.685C251.011 180.938 250.946 181.215 250.764 181.411C246.742 185.695 245.629 189.316 247.459 192.174C248.68 194.082 250.517 195.218 252.919 195.545C256.911 196.093 266.711 193.839 276.038 185.489L282.448 179.749L275.128 176.844Z" fill="#080717" style="fill:#080717;fill:color(display-p3 0.0314 0.0275 0.0902);fill-opacity:1;"/>
<path d="M270.558 163.468L264.137 146.452L241.167 154.854L248.312 176.95C256.566 177.459 264.661 170.464 270.558 163.468Z" fill="#080717" style="fill:#080717;fill:color(display-p3 0.0314 0.0275 0.0902);fill-opacity:1;"/>
<path d="M282.046 136.814C283.075 122.907 273.707 110.019 259.665 107.009L254.712 105.949C243.728 103.594 232.913 110.58 230.555 121.549L225.626 144.489C223.268 155.458 230.264 166.257 241.248 168.612L245.176 169.453C258.2 172.243 271.059 165.97 277.168 154.887C279.563 155.664 282.263 155.492 284.638 154.174C289.171 151.654 290.801 145.942 288.278 141.415C286.907 138.959 284.594 137.365 282.043 136.814H282.046Z" fill="white" style="fill:white;fill-opacity:1;"/>
<path d="M245.02 170.173L241.092 169.332C235.588 168.153 230.873 164.903 227.815 160.18C224.756 155.458 223.725 149.83 224.905 144.334L229.834 121.393C232.273 110.046 243.504 102.794 254.868 105.229L259.82 106.29C273.771 109.28 283.562 122.093 282.821 136.247C285.412 136.977 287.614 138.703 288.927 141.057C290.243 143.418 290.557 146.151 289.817 148.749C289.076 151.347 287.364 153.502 284.999 154.816C282.729 156.076 280.037 156.411 277.526 155.755C272.093 165.153 261.911 170.831 251.265 170.831C249.191 170.831 247.1 170.615 245.023 170.169L245.02 170.173ZM277.398 154.188C279.718 154.941 282.164 154.708 284.282 153.532C286.302 152.411 287.766 150.57 288.399 148.347C289.031 146.124 288.761 143.79 287.638 141.773C286.43 139.604 284.336 138.061 281.894 137.534C281.535 137.456 281.288 137.125 281.315 136.76C282.323 123.089 272.953 110.611 259.516 107.729L254.563 106.668C243.999 104.402 233.549 111.148 231.282 121.701L226.353 144.641C225.254 149.756 226.214 154.988 229.059 159.38C231.901 163.771 236.289 166.795 241.41 167.889L245.338 168.73C257.638 171.368 270.466 165.528 276.532 154.529C276.664 154.289 276.914 154.147 277.178 154.147C277.252 154.147 277.33 154.157 277.405 154.184L277.398 154.188Z" fill="#080717" style="fill:#080717;fill:color(display-p3 0.0314 0.0275 0.0902);fill-opacity:1;"/>
<path d="M223.509 146.996C221.141 145.82 219.375 143.793 218.532 141.29C216.797 136.122 219.594 130.507 224.77 128.774C227.277 127.933 229.96 128.119 232.328 129.298C234.696 130.473 236.462 132.5 237.304 135.004C239.04 140.172 236.242 145.786 231.066 147.519C230.031 147.867 228.968 148.036 227.91 148.036C226.401 148.036 224.899 147.688 223.509 146.996ZM235.907 135.47C235.193 133.338 233.688 131.616 231.671 130.612C229.655 129.612 227.372 129.453 225.237 130.17C220.833 131.646 218.451 136.422 219.929 140.82C220.647 142.952 222.149 144.675 224.165 145.678C226.181 146.682 228.464 146.837 230.599 146.121C235.004 144.644 237.385 139.868 235.907 135.47Z" fill="#2CAACE" style="fill:#2CAACE;fill:color(display-p3 0.1725 0.6667 0.8078);fill-opacity:1;"/>
<path d="M244.732 149.074C242.364 147.898 240.598 145.871 239.756 143.368C238.917 140.865 239.1 138.182 240.281 135.821C241.458 133.457 243.487 131.693 245.994 130.856C248.501 130.014 251.184 130.2 253.552 131.376C255.92 132.551 257.686 134.578 258.528 137.081C259.37 139.584 259.184 142.267 258.003 144.628C256.826 146.993 254.797 148.756 252.29 149.597C251.255 149.945 250.192 150.114 249.134 150.114C247.625 150.114 246.123 149.766 244.732 149.074ZM246.464 132.251C244.33 132.963 242.605 134.467 241.6 136.476C240.598 138.487 240.44 140.77 241.153 142.898C241.87 145.03 243.372 146.753 245.389 147.756C247.405 148.756 249.688 148.915 251.823 148.199C253.957 147.486 255.683 145.983 256.688 143.972C257.689 141.963 257.848 139.679 257.131 137.547C256.417 135.416 254.912 133.693 252.895 132.69C251.711 132.102 250.436 131.805 249.151 131.805C248.247 131.805 247.344 131.95 246.464 132.247V132.251Z" fill="#2CAACE" style="fill:#2CAACE;fill:color(display-p3 0.1725 0.6667 0.8078);fill-opacity:1;"/>
<path d="M271.701 141.682C272.063 141.682 272.378 141.419 272.429 141.05C272.486 140.648 272.205 140.273 271.803 140.216L258.325 138.29C257.923 138.236 257.55 138.513 257.493 138.915C257.435 139.317 257.716 139.692 258.119 139.75L271.596 141.675C271.63 141.682 271.667 141.682 271.701 141.682Z" fill="#2CAACE" style="fill:#2CAACE;fill:color(display-p3 0.1725 0.6667 0.8078);fill-opacity:1;"/>
<path d="M240.027 138.254C240.369 138.254 240.673 138.017 240.748 137.669C240.832 137.27 240.579 136.882 240.18 136.798L236.942 136.115C236.543 136.031 236.154 136.284 236.07 136.683C235.985 137.081 236.238 137.47 236.638 137.554L239.875 138.237C239.926 138.247 239.977 138.254 240.027 138.254Z" fill="#2CAACE" style="fill:#2CAACE;fill:color(display-p3 0.1725 0.6667 0.8078);fill-opacity:1;"/>
<path d="M250.562 140.169C250.355 141.682 249.405 142.8 248.44 142.668C247.476 142.537 246.864 141.206 247.07 139.692C247.277 138.179 248.227 137.061 249.191 137.192C250.156 137.324 250.768 138.655 250.562 140.169Z" fill="#080717" style="fill:#080717;fill:color(display-p3 0.0314 0.0275 0.0902);fill-opacity:1;"/>
<path d="M234.621 138.206C234.414 139.719 233.464 140.838 232.499 140.706C231.535 140.574 230.923 139.243 231.129 137.73C231.336 136.216 232.286 135.098 233.25 135.23C234.215 135.362 234.827 136.693 234.621 138.206Z" fill="#080717" style="fill:#080717;fill:color(display-p3 0.0314 0.0275 0.0902);fill-opacity:1;"/>
<path d="M237.188 153.627C238.738 153.627 240.487 153.076 241.84 151.303C242.087 150.979 242.023 150.516 241.701 150.273C241.376 150.026 240.913 150.09 240.669 150.411C238.416 153.364 235.047 151.715 234.905 151.644C234.54 151.462 234.1 151.607 233.914 151.968C233.731 152.33 233.876 152.772 234.239 152.958C234.925 153.306 235.998 153.631 237.188 153.631V153.627Z" fill="#080717" style="fill:#080717;fill:color(display-p3 0.0314 0.0275 0.0902);fill-opacity:1;"/>
<path d="M255.368 130.464C255.548 130.464 255.723 130.399 255.865 130.271C256.166 129.997 256.187 129.531 255.91 129.231C252.324 125.322 246.397 126.43 246.146 126.481C245.747 126.559 245.487 126.944 245.565 127.346C245.642 127.744 246.031 128.005 246.427 127.927C246.481 127.917 251.796 126.934 254.82 130.227C254.965 130.386 255.165 130.467 255.365 130.467L255.368 130.464Z" fill="#080717" style="fill:#080717;fill:color(display-p3 0.0314 0.0275 0.0902);fill-opacity:1;"/>
<path d="M235.311 128.433C235.535 128.433 235.758 128.332 235.903 128.14C236.147 127.815 236.083 127.356 235.758 127.113C235.585 126.981 231.468 123.954 226.448 125.92C226.069 126.069 225.883 126.494 226.032 126.873C226.181 127.251 226.607 127.437 226.986 127.288C231.221 125.63 234.726 128.18 234.871 128.288C235.003 128.386 235.159 128.433 235.311 128.433Z" fill="#080717" style="fill:#080717;fill:color(display-p3 0.0314 0.0275 0.0902);fill-opacity:1;"/>
<path d="M274.296 149.442C274.685 149.442 275.013 149.134 275.03 148.742C275.03 148.702 275.26 144.537 277.624 142.51C278.626 141.652 279.901 141.294 281.413 141.449C281.823 141.48 282.181 141.196 282.222 140.794C282.262 140.389 281.968 140.027 281.566 139.986C279.634 139.791 277.983 140.263 276.66 141.399C273.815 143.844 273.568 148.475 273.558 148.671C273.538 149.077 273.853 149.422 274.258 149.442C274.272 149.442 274.282 149.442 274.296 149.442Z" fill="#080717" style="fill:#080717;fill:color(display-p3 0.0314 0.0275 0.0902);fill-opacity:1;"/>
<path d="M270.632 112.371C270.984 112.371 271.292 112.121 271.356 111.766C272.07 107.804 267.892 105.189 267.713 105.081C267.368 104.868 266.914 104.976 266.701 105.321C266.488 105.665 266.596 106.122 266.941 106.334C266.975 106.355 270.443 108.533 269.905 111.506C269.834 111.905 270.098 112.29 270.5 112.361C270.544 112.368 270.588 112.371 270.632 112.371Z" fill="#080717" style="fill:#080717;fill:color(display-p3 0.0314 0.0275 0.0902);fill-opacity:1;"/>
<path d="M271.119 110.662C271.44 110.662 271.735 110.452 271.826 110.128C272.225 108.729 273.338 108.746 273.46 108.756C273.869 108.78 274.214 108.473 274.241 108.071C274.268 107.669 273.971 107.321 273.571 107.287C272.739 107.223 271.004 107.645 270.408 109.722C270.297 110.114 270.524 110.52 270.916 110.631C270.983 110.651 271.051 110.658 271.119 110.658V110.662Z" fill="#080717" style="fill:#080717;fill:color(display-p3 0.0314 0.0275 0.0902);fill-opacity:1;"/>
<path d="M263.511 123.096C263.511 116.539 260.554 110.584 255.743 106.172L267.949 108.787C278.723 111.094 285.581 121.687 283.27 132.447L282.316 136.879C280.09 136.331 277.665 136.578 275.503 137.78C271.443 140.034 269.725 144.847 271.213 149.077C268.771 148.645 267.11 146.347 267.475 143.891L268.429 137.493L267.086 136.095C265.009 133.936 263.791 131.095 263.659 128.106L263.483 124.096C263.5 123.765 263.514 123.434 263.514 123.099L263.511 123.096Z" fill="#080717" style="fill:#080717;fill:color(display-p3 0.0314 0.0275 0.0902);fill-opacity:1;"/>
<path d="M253.104 118.64C257.96 117.856 261.261 113.29 260.476 108.44C259.691 103.591 255.118 100.295 250.262 101.079C245.406 101.863 242.105 106.429 242.89 111.278C243.675 116.128 248.248 119.424 253.104 118.64Z" fill="#080717" style="fill:#080717;fill:color(display-p3 0.0314 0.0275 0.0902);fill-opacity:1;"/>
<path d="M261.201 126.781C266.419 126.781 270.649 122.557 270.649 117.346C270.649 112.136 266.419 107.911 261.201 107.911C255.983 107.911 251.752 112.136 251.752 117.346C251.752 122.557 255.983 126.781 261.201 126.781Z" fill="#080717" style="fill:#080717;fill:color(display-p3 0.0314 0.0275 0.0902);fill-opacity:1;"/>
<path d="M120.596 264.985H181.164C182.101 264.985 182.862 265.745 182.862 266.681V271.413H120.596V264.985Z" fill="black" style="fill:black;fill-opacity:1;"/>
<path d="M132.945 271.414H94.9004L77.3363 218.354C76.3857 215.48 78.5271 212.514 81.5582 212.514H108.138C111.311 212.514 114.122 214.547 115.117 217.554L132.941 271.41L132.945 271.414Z" fill="black" style="fill:black;fill-opacity:1;"/>
<path d="M106.027 241.835C107.065 244.524 106.446 247.271 104.636 247.973C102.827 248.672 100.519 247.061 99.4741 244.372C98.4356 241.683 99.0546 238.934 100.865 238.234C102.671 237.535 104.981 239.146 106.027 241.835Z" fill="white" style="fill:white;fill-opacity:1;"/>
<path d="M103.733 248.855C101.815 248.855 99.8052 247.203 98.8072 244.626C98.2524 243.197 98.1104 241.69 98.4013 240.396C98.7193 238.998 99.5007 237.991 100.604 237.565C101.706 237.137 102.965 237.356 104.139 238.174C105.228 238.934 106.135 240.143 106.689 241.572C107.89 244.676 107.102 247.777 104.89 248.632C104.514 248.777 104.122 248.848 103.729 248.848L103.733 248.855ZM101.757 238.785C101.537 238.785 101.324 238.822 101.125 238.9C100.478 239.15 100.008 239.795 99.7984 240.714C99.5684 241.738 99.6902 242.943 100.143 244.112C101.026 246.389 102.965 247.852 104.379 247.305C105.793 246.757 106.243 244.372 105.36 242.095C104.907 240.927 104.186 239.951 103.323 239.352C102.789 238.978 102.248 238.788 101.754 238.788L101.757 238.785Z" fill="black" style="fill:black;fill-opacity:1;"/>
<defs>
<clipPath id="clip0_2343_1505">
<rect width="3.44442" height="3.26313" fill="white" style="fill:white;fill-opacity:1;" transform="translate(85.4961 116.283)"/>
</clipPath>
</defs>
</svg>
