<svg width="338" height="253" viewBox="0 0 338 253" fill="none" xmlns="http://www.w3.org/2000/svg">
<g clip-path="url(#clip0_2001_52)">
<mask id="mask0_2001_52" style="mask-type:luminance" maskUnits="userSpaceOnUse" x="0" y="0" width="338" height="253">
<path d="M338 0H0V253H338V0Z" fill="white"/>
</mask>
<g mask="url(#mask0_2001_52)">
<path d="M70.938 241.342L83.053 235.309L88.4144 235.314L90.4542 237.144L87.4267 241.493L81.6654 244.554L79.8002 244.976H73.6488L70.938 241.342Z" fill="white"/>
<path d="M170.456 228.487L198.816 155.31C205.702 137.546 212.345 131.218 230.465 125.763L250.468 122.079L279.76 126.365C294.714 130.287 311.197 145.872 311.905 161.6L170.456 228.487Z" fill="white"/>
<path d="M171.642 228.978C171.513 228.978 171.38 228.955 171.256 228.904C170.7 228.689 170.429 228.065 170.64 227.514L199 154.337C206.043 136.164 212.993 129.672 231.338 124.149C231.375 124.14 231.416 124.13 231.453 124.121L251.455 120.437C251.57 120.419 251.69 120.414 251.805 120.433L281.097 124.718C281.138 124.722 281.175 124.732 281.212 124.74C293.506 127.966 307.793 140.179 312.939 153.543C314.069 156.471 312.199 158.214 311.088 155.37C310.945 154.924 309.709 153.007 309.709 153.007C305.515 141.463 294.36 130.429 280.725 126.833L251.671 122.584L231.903 126.227C214.183 131.572 207.825 137.518 201.007 155.117L172.648 228.294C172.482 228.721 172.073 228.982 171.642 228.982V228.978Z" fill="black"/>
<path d="M180.251 205.85C180.251 205.85 200.58 157.443 202.069 151.745C202.524 151.433 205.046 143.964 209.111 139.394C213.292 134.705 220.602 130.957 221.098 130.682L228.967 127.7L230.493 143.386C230.493 143.386 234.761 152.047 249.885 146.886C262.831 142.679 274.449 132.981 280.73 126.213C280.73 126.213 300.158 132.976 307.569 148.272C316.091 165.857 321.406 179.46 336.479 207.864C341.138 216.641 312.921 261.749 286.881 250.784H216.393L211.068 220.729L205.914 230.574C202.23 239.342 195.403 245.205 185.893 245.43L171.849 245.765L168.94 218.306L175.404 216.044L180.251 205.845V205.85Z" fill="white"/>
<path d="M90.2655 243.375C89.5857 242.622 89.2591 241.613 89.3652 240.608C89.5212 239.121 90.6052 237.878 92.0526 237.516C92.4521 237.415 92.7464 237.075 92.7829 236.667C92.8245 236.259 92.5993 235.869 92.2269 235.694C88.9008 234.144 85.106 234.199 81.8308 235.85L71.1908 241.214C71.1445 241.237 71.1081 241.259 71.0665 241.287C71.0207 241.301 70.9792 241.319 70.938 241.342L69.1233 242.255C66.8489 243.48 64.2857 244.127 61.6992 244.127H60.4863C59.1356 244.127 58.4006 243.214 58.1708 242.361C57.9367 241.507 58.0974 240.347 59.1954 239.691L92.0022 223.229C94.129 222.16 96.5777 221.89 98.8885 222.468L116.526 226.877C118.345 227.331 120.274 227.349 122.025 226.941L164.249 220.646C164.304 220.637 164.36 220.623 164.415 220.605L167.134 219.696L170.902 244.379C170.911 244.444 170.943 244.494 170.961 244.558H92.9118C91.9008 244.558 90.9318 244.127 90.2562 243.375H90.2655Z" fill="white"/>
<path d="M75.927 246.068H74.7141C72.1827 246.068 70.6255 244.131 70.3956 242.218C70.3316 241.686 70.7082 241.2 71.2459 241.136C71.7739 241.067 72.2612 241.448 72.3252 241.985C72.4495 243.017 73.2536 244.123 74.7141 244.123H75.927C78.5089 244.123 81.0772 243.475 83.3511 242.255L87.7846 239.869C88.2579 239.617 88.8457 239.791 89.0984 240.264C89.3512 240.737 89.1765 241.324 88.7036 241.581L84.2701 243.967C81.7158 245.343 78.8308 246.068 75.927 246.068Z" fill="black"/>
<path d="M288.424 213.117C288.342 213.117 288.255 213.108 288.172 213.085L271.371 208.561C270.852 208.419 270.544 207.892 270.686 207.368C270.829 206.85 271.362 206.543 271.876 206.685L288.677 211.209C289.196 211.346 289.504 211.878 289.361 212.402C289.247 212.837 288.852 213.117 288.424 213.117Z" fill="black"/>
<path d="M223.454 171.074L216.347 195.624C216.347 195.624 212.47 211.778 234.765 212.103L223.454 171.074Z" fill="white"/>
<path d="M234.765 213.071H234.751C226.725 212.952 221.038 210.819 217.854 206.717C213.949 201.689 215.341 195.647 215.405 195.394L222.526 170.798C222.678 170.285 223.215 169.982 223.73 170.133C224.245 170.285 224.543 170.822 224.396 171.335L217.289 195.89C217.289 195.89 216.072 201.262 219.411 205.538C222.218 209.135 227.391 211.011 234.788 211.122C235.326 211.126 235.753 211.571 235.748 212.108C235.743 212.64 235.307 213.067 234.779 213.067V213.076L234.765 213.071Z" fill="black"/>
<path d="M278.727 210.535C278.327 210.535 277.95 210.282 277.808 209.883L267.769 181.08C267.59 180.571 267.861 180.02 268.366 179.841C268.877 179.662 269.428 179.933 269.607 180.438L279.645 209.241C279.82 209.75 279.554 210.3 279.048 210.479C278.942 210.516 278.832 210.535 278.727 210.535Z" fill="black"/>
<path d="M215.001 250.789L209.267 220.077C209.166 219.55 209.515 219.04 210.044 218.944C210.572 218.843 211.077 219.196 211.179 219.719L217.069 250.789H214.996H215.001Z" fill="black"/>
<path d="M170.971 245.526C170.488 245.526 170.07 245.164 170.011 244.673L166.818 218.834C166.749 218.302 167.13 217.815 167.663 217.751C168.196 217.682 168.683 218.063 168.747 218.595L171.94 244.439C172.009 244.971 171.628 245.457 171.095 245.521C171.053 245.531 171.017 245.531 170.975 245.531L170.971 245.526Z" fill="black"/>
<path d="M200.369 156.383C199.813 158.356 197.608 163.93 190.707 181.392C185.737 193.963 180.747 206.506 180.747 206.506C180.733 206.538 180.715 206.57 180.702 206.603L175.313 216.691C175.198 216.912 175 217.077 174.761 217.155L164.42 220.6C164.365 220.619 164.314 220.633 164.254 220.641L122.029 226.936C120.275 227.349 118.345 227.331 116.526 226.872L98.889 222.463C96.5828 221.885 94.1341 222.156 92.0022 223.224L59.1954 239.681C58.0974 240.337 57.932 241.498 58.1712 242.352C58.4053 243.205 59.1403 244.118 60.4863 244.118H61.6992C64.2811 244.118 66.8494 243.471 69.1233 242.251L81.8308 235.846C85.0055 234.244 88.6578 234.139 91.9106 235.548L102.284 232.955C102.803 232.827 103.331 233.144 103.465 233.662C103.593 234.185 103.276 234.713 102.757 234.841L92.062 237.516H92.0484C90.601 237.878 89.5259 239.121 89.3652 240.608C89.2596 241.613 89.5904 242.622 90.2659 243.37C90.9411 244.123 91.9106 244.554 92.9258 244.554H185.249C193.239 244.554 200.53 239.856 203.833 232.588L220.661 195.55C220.826 195.179 221.212 194.954 221.612 194.981C222.016 195.009 222.365 195.284 222.476 195.674L230.718 223.349L285.806 248.641C295.697 253.184 306.627 251.229 314.331 243.549C322.036 235.869 339.934 218.903 335.423 209.007C323.841 183.617 316.421 167.436 308.96 151.112L311.905 151.121C319.362 167.45 325.61 182.814 337.187 208.204C342.048 218.857 323.993 236.658 315.7 244.925C310.366 250.243 303.599 253.009 296.621 253.009C292.739 253.009 288.797 252.156 284.993 250.408L229.505 224.931C229.252 224.812 229.059 224.592 228.981 224.326L221.355 198.721L205.597 233.396C201.982 241.356 193.992 246.503 185.245 246.503H92.9212C91.3592 246.503 89.866 245.838 88.8185 244.678C87.771 243.517 87.2702 241.962 87.4313 240.406C87.5827 238.957 88.3041 237.658 89.3745 236.759C87.1463 236.249 84.7986 236.534 82.704 237.585L70.0194 243.975C67.4834 245.343 64.5983 246.063 61.6992 246.063H60.4863C58.4744 246.063 56.8251 244.811 56.2921 242.87C55.759 240.929 56.5308 239.012 58.2586 237.984L91.1294 221.495C93.6748 220.219 96.5963 219.898 99.3576 220.586L116.994 224.995C118.52 225.376 120.132 225.39 121.662 225.037L163.877 218.737L173.769 215.439L178.946 205.736C186.605 186.508 198.072 157.516 198.628 155.594C198.628 155.585 198.628 155.576 198.628 155.567C198.669 155.305 198.816 155.071 199.041 154.92" fill="black"/>
<path d="M191.856 187.347L169.027 152.305L140.502 146.886L120.224 155.264C120.95 157.122 122.672 158.407 124.662 158.581L130.101 158.792L116.7 165.023C114.968 165.825 114.922 168.28 116.622 169.147L119.778 170.762L117.844 171.771C117.127 172.147 116.916 173.069 117.398 173.717C119.732 176.859 123.798 178.185 127.538 177.015L141.017 172.794L129.559 183.388L130.133 183.961C132.587 186.425 136.34 187.049 139.464 185.521L151.62 179.561L162.71 197.078C166.363 202.836 172.082 206.974 178.693 208.639L189.338 211.314L264.227 239.567L270.328 207.855L191.86 187.334V187.342L191.856 187.347Z" fill="white"/>
<path d="M264.227 240.544C264.112 240.544 263.993 240.525 263.883 240.48L189.044 212.25L178.455 209.585C171.568 207.85 165.688 203.598 161.888 197.601L151.262 180.823L139.887 186.397C136.386 188.109 132.192 187.407 129.44 184.649L128.866 184.076C128.678 183.888 128.581 183.636 128.581 183.369C128.585 183.103 128.7 182.855 128.893 182.677L137.186 175.015L127.823 177.946C123.693 179.24 119.191 177.772 116.613 174.299C116.213 173.762 116.071 173.079 116.218 172.427C116.365 171.776 116.797 171.221 117.385 170.913L117.656 170.771L116.177 170.014C115.056 169.44 114.371 168.303 114.399 167.041C114.422 165.784 115.148 164.669 116.287 164.141L126.041 159.609L124.621 159.554C122.2 159.338 120.187 157.833 119.319 155.617C119.126 155.122 119.365 154.566 119.852 154.365L140.126 145.987C140.301 145.914 140.494 145.895 140.677 145.932L169.202 151.35C169.464 151.401 169.689 151.552 169.836 151.772L192.458 186.494L270.563 206.915C271.054 207.043 271.367 207.534 271.27 208.038L265.169 239.746C265.114 240.025 264.939 240.269 264.687 240.411C264.54 240.493 264.375 240.535 264.214 240.535H264.218L264.227 240.544ZM151.62 178.593C151.946 178.593 152.259 178.759 152.443 179.043L163.538 196.56C167.066 202.134 172.538 206.089 178.937 207.699L189.582 210.378C189.618 210.387 189.651 210.397 189.688 210.41L263.497 238.254L269.207 208.571L191.617 188.283C191.383 188.223 191.181 188.076 191.047 187.87L168.444 153.176L140.608 147.891L121.58 155.755C122.292 156.81 123.445 157.498 124.75 157.613L130.143 157.819C130.588 157.838 130.97 158.159 131.057 158.599C131.144 159.04 130.919 159.485 130.515 159.673L117.114 165.903C116.645 166.119 116.361 166.559 116.351 167.078C116.342 167.596 116.613 168.046 117.073 168.28L120.229 169.89C120.55 170.055 120.757 170.386 120.762 170.753C120.762 171.115 120.56 171.45 120.242 171.615L118.304 172.629C118.184 172.693 118.143 172.799 118.129 172.854C118.116 172.909 118.106 173.024 118.189 173.134C120.275 175.946 123.918 177.13 127.258 176.084L140.737 171.863C141.169 171.725 141.637 171.909 141.867 172.303C142.092 172.698 142.019 173.194 141.688 173.501L130.974 183.406C133.138 185.457 136.359 185.962 139.047 184.64L151.207 178.681C151.345 178.616 151.492 178.579 151.634 178.579H151.62V178.593Z" fill="black"/>
<path d="M125.029 161.944C124.653 161.944 124.29 161.724 124.134 161.352C123.922 160.857 124.152 160.288 124.648 160.077L141.311 153.002C141.481 152.933 141.67 152.91 141.844 152.938L157.625 155.503C158.158 155.59 158.511 156.085 158.429 156.617C158.342 157.149 157.846 157.508 157.313 157.42L141.807 154.901L125.402 161.866C125.278 161.921 125.149 161.944 125.02 161.944H125.029Z" fill="black"/>
<path d="M117.431 172.579C117.063 172.579 116.709 172.368 116.544 172.01C116.319 171.523 116.535 170.945 117.022 170.72L138.067 161.058C138.242 160.98 138.44 160.953 138.628 160.98L153.991 163.485C154.519 163.573 154.877 164.068 154.79 164.6C154.703 165.132 154.202 165.49 153.674 165.403L138.605 162.944L117.83 172.482C117.702 172.542 117.564 172.574 117.426 172.574L117.431 172.579Z" fill="black"/>
<path d="M139.661 174.533C139.418 174.533 139.175 174.441 138.986 174.258C138.6 173.886 138.591 173.272 138.963 172.882L143.038 168.661C143.199 168.495 143.41 168.39 143.64 168.372L151.276 167.606C151.809 167.55 152.286 167.94 152.341 168.473C152.396 169.005 152.006 169.482 151.469 169.537L144.187 170.266L140.36 174.23C140.172 174.428 139.914 174.528 139.661 174.528V174.533Z" fill="black"/>
<path d="M222.172 55.6604C232.499 55.6604 240.871 47.3004 240.871 36.9876C240.871 26.6749 232.499 18.3149 222.172 18.3149C211.846 18.3149 203.474 26.6749 203.474 36.9876C203.474 47.3004 211.846 55.6604 222.172 55.6604Z" fill="#080717"/>
<path d="M269.285 121.098L256.55 81.0176L223.625 91.4508L235.096 127.553C230.346 132.609 227.281 138.371 230.493 143.39C238.353 155.677 260.906 143.39 270.82 134.517L280.73 125.644L269.285 121.102V121.098Z" fill="white"/>
<path d="M238.482 149.41C234.614 148.882 231.641 147.038 229.652 143.927C226.679 139.284 228.131 133.692 233.97 127.301L222.673 91.7534C222.508 91.2258 222.797 90.666 223.326 90.4964L256.252 80.0637C256.505 79.9811 256.78 80.0086 257.014 80.1277C257.249 80.2514 257.428 80.4582 257.506 80.7104L270.098 120.341L281.101 124.708C281.423 124.837 281.657 125.121 281.717 125.461C281.777 125.8 281.657 126.149 281.4 126.378L271.49 135.252C264.999 141.064 251.483 149.561 240.88 149.561C240.062 149.561 239.262 149.511 238.482 149.405V149.41ZM268.918 122.029C268.637 121.919 268.426 121.69 268.334 121.401L255.902 82.2703L224.887 92.0975L236.056 127.245C236.166 127.59 236.079 127.966 235.831 128.232C230.368 134.049 228.857 138.968 231.343 142.849C233.001 145.441 235.496 146.983 238.757 147.428C244.178 148.171 257.488 145.111 270.154 133.77L278.859 125.975L268.918 122.029Z" fill="#080717"/>
<path d="M262.711 103.861L253.992 80.7519L222.798 92.1619L232.5 122.171C243.71 122.864 254.704 113.363 262.711 103.861Z" fill="#080717"/>
<path d="M278.313 67.6625C279.71 48.7739 266.988 31.2712 247.918 27.1833L241.192 25.7427C226.275 22.545 211.588 32.0328 208.386 46.9296L201.692 78.0863C198.49 92.9832 207.99 107.65 222.907 110.848L228.241 111.991C245.929 115.78 263.391 107.261 271.688 92.2077C274.941 93.2629 278.607 93.029 281.832 91.2398C287.988 87.8173 290.202 80.059 286.775 73.9112C284.915 70.5756 281.772 68.4104 278.308 67.6625H278.313Z" fill="white"/>
<path d="M228.03 112.968L222.696 111.826C215.222 110.224 208.817 105.811 204.664 99.3968C200.511 92.9832 199.11 85.3398 200.713 77.8753L207.407 46.7185C210.719 31.3079 225.972 21.4577 241.404 24.7655L248.129 26.2061C267.076 30.2664 280.371 47.6682 279.365 66.8916C282.884 67.8828 285.875 70.2272 287.658 73.4247C289.445 76.6319 289.872 80.3434 288.866 83.8714C287.859 87.3994 285.535 90.3265 282.324 92.1115C279.241 93.8227 275.584 94.277 272.175 93.3867C264.797 106.15 250.969 113.863 236.511 113.863C233.695 113.863 230.855 113.569 228.035 112.963L228.03 112.968ZM272.001 91.258C275.152 92.281 278.474 91.9644 281.35 90.368C284.092 88.8449 286.082 86.3442 286.941 83.3256C287.8 80.3065 287.432 77.1366 285.907 74.3977C284.267 71.4519 281.423 69.3555 278.106 68.6397C277.619 68.5342 277.284 68.0845 277.321 67.5891C278.69 49.0218 265.964 32.0741 247.716 28.1606L240.99 26.72C226.643 23.6415 212.451 32.8035 209.373 47.136L202.68 78.2927C201.186 85.2385 202.491 92.3454 206.355 98.3098C210.214 104.274 216.172 108.38 223.128 109.866L228.462 111.009C245.166 114.592 262.587 106.66 270.825 91.7216C271.003 91.3957 271.344 91.2029 271.702 91.2029C271.803 91.2029 271.908 91.2169 272.01 91.2533L272.001 91.258Z" fill="#080717"/>
<path d="M198.816 81.4902C195.6 79.8938 193.202 77.1408 192.058 73.7412C189.701 66.7217 193.501 59.0969 200.529 56.7432C203.934 55.6007 207.577 55.8533 210.793 57.4543C214.009 59.0507 216.407 61.8036 217.551 65.2032C219.908 72.2228 216.108 79.848 209.079 82.2013C207.673 82.6738 206.231 82.9035 204.793 82.9035C202.744 82.9035 200.704 82.431 198.816 81.4902ZM215.653 65.8364C214.684 62.9415 212.64 60.6018 209.901 59.2389C207.163 57.8811 204.063 57.6654 201.163 58.6379C195.182 60.6429 191.948 67.1302 193.955 73.1034C194.929 75.9987 196.969 78.3385 199.707 79.7009C202.445 81.0638 205.546 81.2749 208.445 80.3019C214.427 78.2969 217.661 71.81 215.653 65.8364Z" fill="#2CAACE"/>
<path d="M227.639 84.3121C224.424 82.7153 222.025 79.9624 220.882 76.5628C219.742 73.1632 219.99 69.5203 221.594 66.3136C223.192 63.1021 225.949 60.7073 229.353 59.5694C232.757 58.4269 236.4 58.6795 239.616 60.2759C242.832 61.8727 245.23 64.6252 246.374 68.0248C247.518 71.4244 247.265 75.0673 245.662 78.2745C244.064 81.4859 241.307 83.8807 237.903 85.0233C236.497 85.4958 235.054 85.725 233.617 85.725C231.567 85.725 229.527 85.2525 227.639 84.3121ZM229.991 61.4642C227.093 62.4321 224.75 64.4739 223.385 67.2035C222.025 69.9335 221.809 73.0348 222.779 75.9254C223.753 78.8203 225.792 81.16 228.531 82.5225C231.269 83.8807 234.37 84.0964 237.269 83.1238C240.167 82.1555 242.511 80.1141 243.875 77.3841C245.235 74.6545 245.451 71.5528 244.477 68.6579C243.508 65.7631 241.463 63.4233 238.725 62.0604C237.117 61.2624 235.385 60.8586 233.639 60.8586C232.413 60.8586 231.186 61.0561 229.991 61.4595V61.4642Z" fill="#2CAACE"/>
<path d="M264.264 74.2735C264.756 74.2735 265.183 73.9158 265.252 73.4158C265.33 72.8695 264.949 72.3605 264.402 72.2826L246.099 69.6674C245.552 69.5941 245.047 69.97 244.969 70.5162C244.891 71.0621 245.272 71.5715 245.818 71.6494L264.122 74.2646C264.168 74.2735 264.218 74.2735 264.264 74.2735Z" fill="#2CAACE"/>
<path d="M221.249 69.617C221.713 69.617 222.127 69.2957 222.228 68.8232C222.343 68.2816 221.998 67.754 221.456 67.6396L217.059 66.7128C216.517 66.5979 215.989 66.942 215.874 67.4836C215.759 68.0248 216.104 68.5524 216.646 68.6673L221.043 69.5941C221.111 69.6076 221.181 69.617 221.249 69.617Z" fill="#2CAACE"/>
<path d="M235.555 72.2181C235.275 74.2735 233.984 75.7924 232.675 75.6131C231.365 75.4343 230.534 73.6268 230.814 71.5715C231.094 69.5161 232.385 67.9972 233.695 68.1761C235.004 68.3553 235.835 70.1628 235.555 72.2181Z" fill="#080717"/>
<path d="M213.908 69.5525C213.627 71.6079 212.337 73.1267 211.027 72.9479C209.718 72.7686 208.886 70.9612 209.166 68.9058C209.447 66.8505 210.738 65.3316 212.047 65.5109C213.356 65.6897 214.188 67.4972 213.908 69.5525Z" fill="#080717"/>
<path d="M217.395 90.4965C219.499 90.4965 221.874 89.7485 223.711 87.3401C224.047 86.8994 223.96 86.2709 223.523 85.9408C223.082 85.6056 222.453 85.6929 222.122 86.1289C219.062 90.1388 214.487 87.8995 214.294 87.8033C213.798 87.5558 213.2 87.7529 212.948 88.2436C212.7 88.7348 212.897 89.3357 213.389 89.5879C214.321 90.0608 215.778 90.5011 217.395 90.5011V90.4965Z" fill="#080717"/>
<path d="M242.083 59.0371C242.327 59.0371 242.566 58.9498 242.759 58.7757C243.168 58.404 243.195 57.7709 242.819 57.3628C237.949 52.0544 229.9 53.5593 229.56 53.6279C229.018 53.7335 228.664 54.2564 228.77 54.8027C228.876 55.3438 229.404 55.6973 229.941 55.5918C230.015 55.5778 237.232 54.2428 241.339 58.7159C241.537 58.9316 241.808 59.0418 242.079 59.0418L242.083 59.0371Z" fill="#080717"/>
<path d="M214.845 56.2796C215.148 56.2796 215.451 56.1423 215.649 55.8808C215.979 55.44 215.893 54.8162 215.451 54.4861C215.217 54.3069 209.626 50.1961 202.808 52.8664C202.294 53.0681 202.041 53.6462 202.243 54.1602C202.445 54.6738 203.024 54.9264 203.539 54.7243C209.291 52.4719 214.05 55.9359 214.247 56.0825C214.427 56.2156 214.638 56.2796 214.845 56.2796Z" fill="#080717"/>
<path d="M267.788 84.8118C268.316 84.8118 268.761 84.3943 268.784 83.8621C268.784 83.8074 269.097 78.1503 272.308 75.3974C273.668 74.2324 275.4 73.7459 277.453 73.9569C278.009 73.9985 278.496 73.6128 278.551 73.067C278.607 72.5165 278.207 72.0253 277.66 71.9702C275.037 71.7045 272.795 72.3465 270.999 73.8883C267.135 77.2099 266.8 83.4997 266.786 83.7659C266.758 84.3164 267.186 84.7847 267.737 84.8118C267.755 84.8118 267.769 84.8118 267.788 84.8118Z" fill="#080717"/>
<path d="M262.812 34.4643C263.29 34.4643 263.708 34.1248 263.796 33.6431C264.765 28.2614 259.091 24.7104 258.848 24.5636C258.379 24.2746 257.763 24.4214 257.474 24.8893C257.184 25.3573 257.332 25.9767 257.8 26.2657C257.846 26.2933 262.555 29.2524 261.824 33.2898C261.728 33.8312 262.087 34.3542 262.633 34.4505C262.693 34.4597 262.753 34.4643 262.812 34.4643Z" fill="#080717"/>
<path d="M263.474 32.1429C263.91 32.1429 264.31 31.8584 264.434 31.418C264.976 29.5186 266.488 29.5416 266.653 29.5553C267.209 29.5874 267.677 29.1699 267.714 28.624C267.751 28.078 267.347 27.6054 266.805 27.5595C265.674 27.4724 263.318 28.0459 262.509 30.8675C262.358 31.3996 262.665 31.9502 263.198 32.1016C263.29 32.1291 263.382 32.1383 263.474 32.1383V32.1429Z" fill="#080717"/>
<path d="M253.142 49.0312C253.142 40.1258 249.126 32.0374 242.593 26.0455L259.169 29.5966C273.801 32.7301 283.114 47.1178 279.976 61.7303L278.68 67.7498C275.657 67.0064 272.364 67.3412 269.428 68.9745C263.915 72.0347 261.581 78.5724 263.602 84.3164C260.285 83.7295 258.03 80.6095 258.526 77.2739L259.822 68.5846L257.997 66.6852C255.177 63.7535 253.523 59.8949 253.344 55.8346L253.105 50.389C253.128 49.9393 253.146 49.4897 253.146 49.0354L253.142 49.0312Z" fill="#080717"/>
<path d="M239.008 42.9791C245.603 41.9146 250.086 35.7127 249.019 29.1266C247.954 22.5404 241.743 18.0641 235.148 19.1285C228.553 20.1929 224.071 26.3948 225.137 32.9809C226.203 39.5671 232.413 44.0432 239.008 42.9791Z" fill="#080717"/>
<path d="M250.004 54.0365C257.09 54.0365 262.836 48.2993 262.836 41.2223C262.836 34.1453 257.09 28.4083 250.004 28.4083C242.917 28.4083 237.173 34.1453 237.173 41.2223C237.173 48.2993 242.917 54.0365 250.004 54.0365Z" fill="#080717"/>
<path d="M172.028 89.056V40.6213L154.032 22.6322H117.49C113.278 22.6322 109.86 26.0456 109.86 30.2618V89.056C109.86 93.2676 113.273 96.6807 117.49 96.6807H164.401C168.614 96.6807 172.032 93.2676 172.032 89.056H172.028Z" fill="white"/>
<path d="M164.397 97.6902H117.49C112.731 97.6902 108.853 93.8181 108.853 89.0556V30.2618C108.853 25.4995 112.726 21.6273 117.49 21.6273H154.032C154.298 21.6273 154.556 21.7329 154.749 21.9256L172.744 39.9147C172.932 40.1028 173.042 40.3598 173.042 40.6304V89.0649C173.042 93.8274 169.17 97.6995 164.406 97.6995L164.397 97.6902ZM117.49 23.646C113.842 23.646 110.87 26.6144 110.87 30.2618V89.0556C110.87 92.7031 113.838 95.6717 117.49 95.6717H164.397C168.044 95.6717 171.012 92.7031 171.012 89.0556V41.0388L153.609 23.6414H117.486L117.49 23.646Z" fill="black"/>
<path d="M154.032 22.6367V35.7169C154.032 38.4283 156.228 40.6259 158.939 40.6259H172.023L154.027 22.6367H154.032Z" fill="black"/>
<path d="M42.1742 142.459H121.639C123.265 142.459 127.005 139.069 127.005 137.444V87.6838C127.005 86.0598 123.265 81.5775 121.639 81.5775H42.8221C41.1956 81.5775 37.3825 85.5873 37.3825 87.2113V136.926C37.3825 138.55 40.5433 142.459 42.1696 142.459H42.1742Z" fill="white"/>
<path d="M120.311 143.22H44.1728C40.0335 143.22 36.6751 139.858 36.6751 135.724V88.3173C36.6751 84.1833 40.0426 80.8206 44.1728 80.8206H120.311C124.451 80.8206 127.814 84.1833 127.814 88.3173V135.724C127.814 139.858 124.446 143.22 120.311 143.22ZM44.1728 82.3436C40.8787 82.3436 38.2004 85.0186 38.2004 88.3173V135.724C38.2004 139.014 40.8787 141.697 44.1728 141.697H120.311C123.605 141.697 126.284 139.023 126.284 135.724V88.3173C126.284 85.0275 123.601 82.3436 120.311 82.3436H44.1728Z" fill="black"/>
<path d="M118.437 92.0839C116.672 92.0839 115.239 90.6477 115.239 88.8861C115.239 87.1244 116.672 85.6882 118.437 85.6882C120.201 85.6882 121.634 87.1244 121.634 88.8861C121.634 90.6477 120.201 92.0839 118.437 92.0839ZM118.437 87.2113C117.513 87.2113 116.764 87.9639 116.764 88.8861C116.764 89.8082 117.513 90.5562 118.437 90.5562C119.36 90.5562 120.109 89.8035 120.109 88.8861C120.109 87.9686 119.356 87.2113 118.437 87.2113Z" fill="black"/>
<path d="M110.241 92.0839C108.477 92.0839 107.043 90.6477 107.043 88.8861C107.043 87.1244 108.481 85.6882 110.241 85.6882C112.001 85.6882 113.439 87.1244 113.439 88.8861C113.439 90.6477 112.005 92.0839 110.241 92.0839ZM110.241 87.2113C109.318 87.2113 108.573 87.9639 108.573 88.8861C108.573 89.8082 109.322 90.5562 110.241 90.5562C111.16 90.5562 111.913 89.8035 111.913 88.8861C111.913 87.9686 111.16 87.2113 110.241 87.2113Z" fill="black"/>
<path d="M102.045 92.0839C100.281 92.0839 98.8474 90.6477 98.8474 88.8861C98.8474 87.1244 100.286 85.6882 102.045 85.6882C103.805 85.6882 105.242 87.1244 105.242 88.8861C105.242 90.6477 103.809 92.0839 102.045 92.0839ZM102.045 87.2113C101.121 87.2113 100.373 87.9639 100.373 88.8861C100.373 89.8082 101.121 90.5562 102.045 90.5562C102.968 90.5562 103.717 89.8035 103.717 88.8861C103.717 87.9686 102.964 87.2113 102.045 87.2113Z" fill="black"/>
<path d="M100.556 67.4285V18.9986L82.5611 1.0094H46.0193C41.8065 1.0094 38.3884 4.42281 38.3884 8.63909V67.4332C38.3884 71.6448 41.8065 75.0626 46.0193 75.0626H92.9301C97.143 75.0626 100.561 71.6494 100.561 67.4332L100.556 67.4285Z" fill="white"/>
<path d="M92.9301 76.0674H46.0193C41.2599 76.0674 37.3825 72.1953 37.3825 67.4332V8.63442C37.3825 3.87219 41.2553 0 46.0193 0H82.5611C82.8278 0 83.0848 0.105522 83.2778 0.298214L101.273 18.2874C101.462 18.4755 101.572 18.7324 101.572 19.0031V67.4374C101.572 72.1999 97.699 76.0721 92.9347 76.0721L92.9301 76.0674ZM46.0193 2.01868C42.3717 2.01868 39.3993 4.98707 39.3993 8.63442V67.4285C39.3993 71.0756 42.3671 74.0442 46.0193 74.0442H92.9258C96.5781 74.0442 99.5459 71.0756 99.5459 67.4285V19.416L82.1433 2.01868H46.0151H46.0193Z" fill="black"/>
<path d="M82.5615 1.0094V14.0895C82.5615 16.8009 84.7574 18.9986 87.4678 18.9986H100.552L82.5615 1.0094Z" fill="black"/>
<path d="M68.8706 20.9484H50.3332C49.9977 20.9484 49.7267 20.6089 49.7267 20.1822C49.7267 19.7555 49.9977 19.416 50.3332 19.416H68.8706C69.2056 19.416 69.477 19.7555 69.477 20.1822C69.477 20.6089 69.2056 20.9484 68.8706 20.9484Z" fill="black"/>
<path d="M87.1688 26.7015H50.9074C50.2551 26.7015 49.722 26.362 49.722 25.9354C49.722 25.5087 50.2551 25.1692 50.9074 25.1692H87.1688C87.8257 25.1692 88.3541 25.5087 88.3541 25.9354C88.3541 26.362 87.8257 26.7015 87.1688 26.7015Z" fill="black"/>
<path d="M87.1688 32.4594H50.9074C50.2551 32.4594 49.722 32.1199 49.722 31.6932C49.722 31.2665 50.2551 30.927 50.9074 30.927H87.1688C87.8257 30.927 88.3541 31.2665 88.3541 31.6932C88.3541 32.1199 87.8257 32.4594 87.1688 32.4594Z" fill="black"/>
<path d="M87.1688 38.2356H50.9074C50.2551 38.2356 49.722 37.8961 49.722 37.4694C49.722 37.0427 50.2551 36.7032 50.9074 36.7032H87.1688C87.8257 36.7032 88.3541 37.0427 88.3541 37.4694C88.3541 37.8961 87.8257 38.2356 87.1688 38.2356Z" fill="black"/>
<path d="M87.1688 43.9932H50.9074C50.2551 43.9932 49.722 43.6537 49.722 43.2274C49.722 42.8006 50.2551 42.4612 50.9074 42.4612H87.1688C87.8257 42.4612 88.3541 42.8006 88.3541 43.2274C88.3541 43.6537 87.8257 43.9932 87.1688 43.9932Z" fill="black"/>
<path d="M87.1688 49.7512H50.9074C50.2551 49.7512 49.722 49.4117 49.722 48.985C49.722 48.5582 50.2551 48.2188 50.9074 48.2188H87.1688C87.8257 48.2188 88.3541 48.5582 88.3541 48.985C88.3541 49.4117 87.8257 49.7512 87.1688 49.7512Z" fill="black"/>
<path d="M87.1688 55.4312H50.9074C50.2551 55.4312 49.722 55.0917 49.722 54.6649C49.722 54.2382 50.2551 53.8987 50.9074 53.8987H87.1688C87.8257 53.8987 88.3541 54.2382 88.3541 54.6649C88.3541 55.0917 87.8257 55.4312 87.1688 55.4312Z" fill="black"/>
<path d="M87.1688 61.1845H50.9074C50.2551 61.1845 49.722 60.845 49.722 60.4183C49.722 59.9915 50.2551 59.6521 50.9074 59.6521H87.1688C87.8257 59.6521 88.3541 59.9915 88.3541 60.4183C88.3541 60.845 87.8257 61.1845 87.1688 61.1845Z" fill="black"/>
<path d="M87.1688 66.942H50.9074C50.2551 66.942 49.722 66.6026 49.722 66.1758C49.722 65.7495 50.2551 65.4096 50.9074 65.4096H87.1688C87.8257 65.4096 88.3541 65.7495 88.3541 66.1758C88.3541 66.6026 87.8257 66.942 87.1688 66.942Z" fill="black"/>
<path d="M68.8706 9.74927H50.3332C49.9977 9.74927 49.7267 9.42809 49.7267 9.03354C49.7267 8.639 49.9977 8.31781 50.3332 8.31781H68.8706C69.2056 8.31781 69.477 8.639 69.477 9.03354C69.477 9.42809 69.2056 9.74927 68.8706 9.74927Z" fill="black"/>
<path d="M68.8706 15.1676H50.3332C49.9977 15.1676 49.7267 14.8465 49.7267 14.4519C49.7267 14.0573 49.9977 13.7362 50.3332 13.7362H68.8706C69.2056 13.7362 69.477 14.0573 69.477 14.4519C69.477 14.8465 69.2056 15.1676 68.8706 15.1676Z" fill="black"/>
<path d="M62.4023 101.379H54.4774V109.302H62.4023V101.379Z" fill="black"/>
<path d="M113.912 104.792H67.3591V105.783H113.912V104.792Z" fill="black"/>
<path d="M58.9333 107.031L56.1033 104.205L56.806 103.503L58.9286 105.627L65.3515 99.209L66.0542 99.9108L58.9333 107.031Z" fill="#2CAACE"/>
<path d="M62.4023 115.684H54.4774V123.607H62.4023V115.684Z" fill="black"/>
<path d="M113.912 119.097H67.3591V120.089H113.912V119.097Z" fill="black"/>
<path d="M58.9333 121.336L56.1033 118.51L56.806 117.808L58.9286 119.933L65.3515 113.514L66.0542 114.22L58.9333 121.336Z" fill="#2CAACE"/>
<path d="M47.4896 128.75L24.8679 128.631C23.2921 128.622 22.0057 129.893 22.0012 131.466L21.8817 154.057C21.8725 155.631 23.1451 156.916 24.7209 156.92L47.3425 157.039C48.9184 157.049 50.2047 155.778 50.2093 154.204L50.3285 131.613C50.3378 130.039 49.0651 128.755 47.4896 128.75Z" fill="#2CAACE"/>
<path d="M45.404 158.278H45.3717L26.5265 158.182C23.2646 158.164 20.623 155.498 20.6414 152.24L20.7378 133.425C20.747 131.843 21.3672 130.365 22.4928 129.255C23.6092 128.149 25.0885 127.544 26.6551 127.544H26.6872L45.5325 127.64C47.1126 127.649 48.5965 128.268 49.7085 129.393C50.8204 130.517 51.4269 131.999 51.4222 133.581L51.3255 152.401C51.3073 155.649 48.6563 158.278 45.4082 158.278H45.404ZM26.6551 128.768C25.4101 128.768 24.2386 129.25 23.3565 130.127C22.4652 131.008 21.9691 132.182 21.9645 133.434L21.868 152.254C21.8542 154.837 23.9491 156.948 26.5356 156.961L45.3806 157.058H45.404C47.9811 157.058 50.0804 154.97 50.0944 152.396L50.1907 133.577C50.2047 130.994 48.1096 128.879 45.5231 128.865L26.6781 128.768H26.6551Z" fill="black"/>
<path d="M31.3871 142.285H31.3595C30.0594 142.28 28.8419 141.766 27.9323 140.844C27.018 139.922 26.5173 138.702 26.5265 137.403C26.5357 136.105 27.0456 134.889 27.9691 133.981C28.8879 133.077 30.0961 132.577 31.3871 132.577H31.41C32.7102 132.581 33.9277 133.095 34.8373 134.017C35.7515 134.939 36.2477 136.16 36.2431 137.458C36.2339 138.757 35.7239 139.973 34.8005 140.885C33.8817 141.789 32.6735 142.289 31.3825 142.289H31.3917L31.3871 142.285Z" fill="white"/>
<path d="M21.2476 152.91L21.2706 148.336L23.338 146.29C24.8678 144.776 27.3395 144.79 28.8509 146.318C30.2843 147.763 32.6228 147.777 34.0699 146.345L42.2015 138.312C44.1313 136.403 47.2458 136.421 49.1572 138.348L50.7649 139.973L50.7008 153.071C50.6868 155.631 48.6012 157.691 46.0375 157.677L25.8602 157.572C23.2966 157.558 21.2339 155.475 21.2476 152.915V152.91Z" fill="black"/>
<path d="M141.008 76.6179C148.366 76.6179 154.331 70.6612 154.331 63.3131C154.331 55.9651 148.366 50.008 141.008 50.008C133.65 50.008 127.685 55.9651 127.685 63.3131C127.685 70.6612 133.65 76.6179 141.008 76.6179Z" fill="black"/>
<path d="M137.806 68.9698H136.363C134.204 68.9698 132.306 67.3963 131.902 65.2676C131.443 62.8453 132.936 60.5098 135.315 59.9364C135.706 59.8402 136.106 59.7987 136.505 59.8127C136.57 59.8127 136.597 59.7987 136.62 59.7347C137.071 58.2849 137.999 57.2755 139.409 56.7296C141.072 56.0825 143.02 56.5275 144.265 57.8031C144.802 58.3536 145.184 58.996 145.395 59.7347C145.413 59.7987 145.441 59.808 145.505 59.808C147.145 59.7987 148.446 60.464 149.396 61.7989C149.884 62.4825 150.141 63.258 150.187 64.0976C150.293 65.9787 149.314 67.6671 147.633 68.502C147.012 68.8096 146.355 68.9656 145.666 68.9656C144.586 68.9656 143.511 68.9656 142.432 68.9656C142.267 68.9656 142.129 68.8643 142.087 68.7177C142.041 68.5664 142.101 68.3964 142.239 68.3231C142.303 68.2909 142.382 68.268 142.455 68.268C143.484 68.268 144.513 68.2634 145.542 68.268C146.452 68.268 147.274 68.0159 147.991 67.4561C148.841 66.7907 149.341 65.919 149.47 64.8455C149.727 62.7533 148.248 60.8357 146.167 60.542C145.85 60.4962 145.533 60.4962 145.212 60.5284C144.995 60.5513 144.848 60.4411 144.802 60.2254C144.688 59.6656 144.463 59.152 144.114 58.6977C143.429 57.7984 142.524 57.2755 141.403 57.1559C139.437 56.9496 137.622 58.2849 137.217 60.2208C137.172 60.4365 137.024 60.542 136.813 60.5284C135.26 60.4089 134.02 60.9734 133.156 62.2715C131.746 64.3819 132.77 67.2772 135.178 68.0752C135.591 68.2129 136.014 68.2727 136.446 68.2727C137.493 68.2727 138.536 68.2727 139.583 68.2727C139.864 68.2727 140.034 68.5477 139.905 68.7863C139.836 68.9152 139.726 68.9698 139.583 68.9698H137.806Z" fill="white"/>
<path d="M141.357 63.1021V70.2683C141.357 70.4611 141.274 70.5895 141.118 70.64C140.898 70.7086 140.672 70.5573 140.663 70.3234C140.663 70.2912 140.663 70.2547 140.663 70.2225V63.1021C140.631 63.125 140.613 63.1432 140.59 63.1572C139.91 63.7488 139.234 64.3362 138.555 64.9324C138.463 65.0108 138.366 65.0655 138.242 65.0473C138.095 65.0244 137.999 64.9464 137.953 64.804C137.907 64.6667 137.943 64.5379 138.049 64.4417C138.169 64.3315 138.297 64.226 138.421 64.1158C139.198 63.4415 139.974 62.7626 140.75 62.088C140.916 61.9413 141.095 61.9413 141.261 62.088C142.156 62.8682 143.048 63.6433 143.939 64.4235C144.109 64.5701 144.132 64.7858 143.994 64.9371C143.861 65.0841 143.65 65.093 143.493 64.96C143.222 64.726 142.951 64.4874 142.68 64.2535C142.262 63.8865 141.844 63.5242 141.421 63.1572C141.407 63.1432 141.389 63.1296 141.357 63.1068V63.1021Z" fill="white"/>
<path d="M59.0576 241.737H141.311C142.583 241.737 143.617 242.769 143.617 244.04V250.467H59.0576V241.737Z" fill="black"/>
<path d="M75.8265 250.467H24.1606L0.307888 178.405C-0.983066 174.501 1.92503 170.473 6.04139 170.473H42.1375C46.4468 170.473 50.2645 173.235 51.6152 177.318L75.8219 250.463L75.8265 250.467Z" fill="black"/>
<path d="M39.2709 210.296C40.6813 213.948 39.8406 217.678 37.3827 218.632C34.9249 219.582 31.7916 217.393 30.372 213.741C28.9616 210.089 29.8024 206.355 32.2603 205.405C34.7135 204.455 37.8513 206.644 39.2709 210.296Z" fill="white"/>
<path d="M36.1561 219.829C33.5512 219.829 30.8223 217.586 29.467 214.085C28.7135 212.145 28.5206 210.098 28.9157 208.341C29.3476 206.442 30.4088 205.075 31.9065 204.496C33.4042 203.914 35.1132 204.212 36.7074 205.322C38.1867 206.355 39.4179 207.997 40.1714 209.938C41.8022 214.154 40.7318 218.366 37.7272 219.526C37.2173 219.724 36.6844 219.82 36.1515 219.82L36.1561 219.829ZM33.4731 206.153C33.1745 206.153 32.885 206.203 32.614 206.309C31.7365 206.648 31.0979 207.525 30.8131 208.772C30.5007 210.163 30.6661 211.8 31.2817 213.388C32.4807 216.48 35.1132 218.467 37.0336 217.724C38.9539 216.98 39.5649 213.741 38.3658 210.649C37.7502 209.061 36.7717 207.736 35.6002 206.923C34.8743 206.415 34.1392 206.157 33.4685 206.157L33.4731 206.153Z" fill="black"/>
</g>
</g>
<defs>
<clipPath id="clip0_2001_52">
<rect width="338" height="253" fill="white"/>
</clipPath>
</defs>
</svg>
