<svg width="184" height="55" viewBox="0 0 184 55" fill="none" xmlns="http://www.w3.org/2000/svg">
<g clip-path="url(#clip0_2001_15)">
<path d="M55.6148 35.9028C53.9444 33.221 52.0162 30.7286 49.9316 28.3561C49.6003 27.9822 49.6049 27.9822 49.2551 28.3377C47.9804 29.63 46.7058 30.9225 45.4311 32.2148C45.0031 32.6487 45.0077 32.681 45.3943 33.161C46.1627 34.1119 46.9497 35.0535 47.6905 36.032C49.0895 37.8737 50.4332 39.7523 51.3812 41.8801C51.7401 42.6787 52.0346 43.5095 52.2969 44.3449C52.5179 45.0511 52.2325 45.4111 51.5009 45.3603C50.8336 45.3142 50.1571 45.2311 49.5082 45.0696C47.686 44.608 45.9419 43.9157 44.2392 43.1171C39.9503 41.1093 35.9651 38.5891 32.141 35.8105C30.2129 34.4119 28.3537 32.9164 26.4992 31.421C25.1969 30.3686 23.959 29.2423 22.6889 28.153C22.3484 27.8622 22.2977 27.8484 21.9895 28.1623C20.6963 29.4639 19.4124 30.7701 18.1377 32.0856C17.7788 32.4548 17.8018 32.5564 18.1745 32.9164C18.2067 32.9487 18.2435 32.9811 18.2758 33.0133C20.8252 35.312 23.4528 37.5182 26.1863 39.5954C29.8907 42.4063 33.7332 45.005 37.8242 47.2251C40.6037 48.7345 43.4385 50.1007 46.4711 51.0331C48.5188 51.6608 50.5989 52.0808 52.7571 51.8916C54.4828 51.7439 56.006 51.1485 57.2255 49.8791C58.4726 48.5775 58.9972 47.0036 58.942 45.1388C58.9926 44.1695 58.7947 43.1495 58.5094 42.1478C57.8743 39.9138 56.8252 37.8691 55.6056 35.912L55.6148 35.9028Z" fill="url(#paint0_linear_2001_15)"/>
<path d="M0.913154 9.81023C1.39174 11.7904 2.25228 13.6136 3.24627 15.3814C4.55319 17.7031 6.10399 19.8586 7.76523 21.9357C8.40027 22.7296 9.07218 23.5004 9.73482 24.2758C9.96951 24.5482 10.0201 24.5389 10.264 24.2897C11.594 22.9466 12.9193 21.6034 14.2446 20.2556C14.5759 19.9186 14.5759 19.8771 14.2768 19.5078C13.5451 18.5986 12.7858 17.7031 12.0772 16.7753C10.5355 14.7583 9.04458 12.7043 8.05518 10.3457C7.72843 9.5656 7.47534 8.74861 7.23602 7.93626C7.11179 7.51624 7.36951 7.23006 7.81129 7.19773C8.01375 7.18392 8.23004 7.16082 8.4233 7.19773C9.33447 7.38235 10.2594 7.53928 11.1522 7.80242C13.8581 8.60555 16.3798 9.85178 18.8372 11.218C23.508 13.8213 27.8982 16.8492 32.026 20.2556C33.6274 21.5756 35.1874 22.9511 36.7659 24.2989C37.2214 24.6866 37.2858 24.6959 37.7092 24.2666C38.8919 23.0712 40.0745 21.8711 41.2388 20.6571C41.8049 20.0663 41.7865 20.011 41.1882 19.4525C38.8459 17.2692 36.3747 15.2383 33.8391 13.2905C29.3754 9.86559 24.7091 6.75003 19.6702 4.22523C16.7388 2.75744 13.7384 1.47889 10.4987 0.878846C9.06298 0.615751 7.6226 0.500358 6.17302 0.740374C4.39672 1.03117 2.90113 1.81583 1.82431 3.29748C0.954572 4.49295 0.545009 5.82688 0.655451 7.31775C0.586426 8.15778 0.715275 8.98865 0.913154 9.81023Z" fill="url(#paint1_linear_2001_15)"/>
<path d="M33.3286 10.1102C34.5802 11.0611 35.8319 12.0073 37.0744 12.9674C37.3137 13.152 37.4978 13.1427 37.7509 12.9858C39.8218 11.675 41.9661 10.5026 44.1843 9.46404C46.0388 8.59626 47.9347 7.82546 49.9457 7.41003C50.5624 7.28078 51.1974 7.23464 51.8279 7.21154C52.1914 7.19773 52.3939 7.48391 52.3709 7.85315C52.3617 7.99162 52.3341 8.1301 52.3018 8.26858C51.8969 9.83327 51.1514 11.2457 50.3415 12.6304C48.9517 15.0028 47.2812 17.1769 45.5095 19.2678C42.0582 23.3342 38.2709 27.0683 34.1891 30.5024C33.4897 31.0932 32.7809 31.6748 32.0861 32.2702C31.7548 32.5564 31.764 32.6718 32.0907 32.9626C32.1413 33.0041 32.1873 33.0503 32.2425 33.0872C33.7657 34.1534 35.289 35.2197 36.8121 36.2859C37.0468 36.452 37.2907 36.4244 37.5208 36.2674C37.622 36.2028 37.7141 36.1197 37.8062 36.0413C40.0012 34.2319 42.1134 32.3302 44.1475 30.3409C47.6448 26.9345 50.9167 23.3296 53.7744 19.3647C55.4402 17.0523 56.9359 14.6428 57.985 11.975C58.726 10.0964 59.1631 8.16237 58.8962 6.13611C58.657 4.29905 57.7274 2.85434 56.2088 1.8158C54.5751 0.689567 52.7114 0.523403 50.8062 0.652644C49.0345 0.772654 47.3273 1.21114 45.6522 1.77887C43.3053 2.57739 41.0642 3.61131 38.8737 4.77447C36.6465 5.96071 34.4514 7.20231 32.353 8.60549C32.2057 8.70241 32.0723 8.81785 31.9342 8.924C31.9112 8.96555 31.8882 9.01169 31.8698 9.05325C31.9848 9.13171 32.1091 9.20553 32.2196 9.28865C32.5877 9.56096 32.9604 9.82868 33.324 10.1056L33.3286 10.1102Z" fill="url(#paint2_linear_2001_15)"/>
<path d="M22.6107 39.6324C22.3254 39.4108 22.1045 39.4062 21.7916 39.5862C20.1166 40.5462 18.4415 41.5202 16.7342 42.4156C14.5392 43.5695 12.2567 44.525 9.84071 45.0974C9.21943 45.2451 8.57062 45.3189 7.93095 45.3466C7.35573 45.3743 7.13481 45.065 7.2499 44.4973C7.32813 44.1142 7.43853 43.7357 7.56739 43.3665C8.40033 41.0032 9.76705 38.9354 11.2121 36.9183C12.6432 34.9243 14.2308 33.0596 15.8599 31.2272C18.1884 28.6101 20.6963 26.173 23.3148 23.8512C24.6815 22.642 26.0897 21.4834 27.4749 20.3018C27.8154 20.011 27.8154 19.8633 27.4702 19.5679C27.4058 19.5125 27.3414 19.4571 27.277 19.4063C25.9194 18.4463 24.5803 17.4585 23.1998 16.5307C22.2932 15.9215 22.5003 15.8707 21.5983 16.6277C18.4829 19.2494 15.5285 22.0419 12.7168 24.9867C10.0524 27.7792 7.53059 30.6871 5.31712 33.8535C3.77551 36.0598 2.41797 38.363 1.45619 40.8924C0.807337 42.6095 0.462204 44.3819 0.664682 46.2005C0.945392 48.6792 2.29833 50.4239 4.60384 51.3655C6.23285 52.0301 7.94015 52.0163 9.65665 51.7855C11.8931 51.4855 14.0192 50.7931 16.0946 49.9346C20.0383 48.3099 23.7244 46.2051 27.2907 43.8834C27.415 43.8049 27.5301 43.708 27.7279 43.5557C27.4794 43.3526 27.277 43.1818 27.0699 43.0203C25.5835 41.8848 24.0879 40.7632 22.6107 39.6185V39.6324Z" fill="url(#paint3_linear_2001_15)"/>
<path d="M68.5826 40.9663V11.915H87.492V16.1892H73.8796V24.1559H86.254V28.3054H73.8796V36.6875H87.492V40.9617H68.5826V40.9663Z" fill="white"/>
<path d="M101.808 41.4647C99.8748 41.4647 98.1543 40.9939 96.6353 40.0523C95.117 39.1107 93.9204 37.8275 93.037 36.1936C92.1529 34.5596 91.7112 32.7087 91.7112 30.6316C91.7112 28.5546 92.1529 26.7083 93.037 25.0928C93.9204 23.4727 95.1213 22.2034 96.6353 21.2756C98.1543 20.3479 99.8748 19.8863 101.808 19.8863C103.354 19.8863 104.702 20.1771 105.862 20.7586C107.022 21.3402 107.96 22.1572 108.674 23.205V11.0888H113.97V40.9708H109.253L108.674 38.026C108.011 38.9399 107.137 39.7431 106.046 40.4308C104.956 41.1231 103.543 41.4693 101.803 41.4693L101.808 41.4647ZM102.926 36.8167C104.638 36.8167 106.037 36.2444 107.128 35.0951C108.218 33.9457 108.761 32.4733 108.761 30.6732C108.761 28.8731 108.218 27.4007 107.128 26.2514C106.037 25.1021 104.638 24.5297 102.926 24.5297C101.214 24.5297 99.8474 25.0974 98.7477 26.2329C97.6431 27.3684 97.0911 28.8315 97.0911 30.6316C97.0911 32.4318 97.6431 33.9088 98.7477 35.072C99.8523 36.2352 101.242 36.8167 102.926 36.8167Z" fill="white"/>
<path d="M123.368 40.9662L117.367 20.3802H122.622L126.18 35.1966L130.316 20.3802H136.193L140.33 35.1966L143.929 20.3802H149.184L143.142 40.9662H137.638L133.253 25.5682L128.867 40.9662H123.363H123.368Z" fill="white"/>
<path d="M155.392 17.1861C154.425 17.1861 153.634 16.8953 153.012 16.3137C152.391 15.7321 152.083 14.9983 152.083 14.112C152.083 13.2259 152.391 12.5012 153.012 11.9334C153.634 11.3657 154.425 11.0842 155.392 11.0842C156.358 11.0842 157.149 11.3657 157.771 11.9334C158.392 12.5012 158.7 13.2259 158.7 14.112C158.7 14.9983 158.392 15.7321 157.771 16.3137C157.149 16.8953 156.358 17.1861 155.392 17.1861ZM152.746 40.9662V20.3802H158.042V40.9662H152.746Z" fill="white"/>
<path d="M161.641 40.9662L169.086 30.6732L161.641 20.3802H167.31L172.524 27.6868L177.696 20.3802H183.407L175.916 30.6732L183.407 40.9662H177.696L172.524 33.6596L167.31 40.9662H161.641Z" fill="white"/>
<path d="M143.201 47.0958V52.2331L139.773 47.0958H138.71V54.624H139.847V49.4221L143.307 54.624H144.338V47.0958H143.201Z" fill="white"/>
<path d="M146.726 47.0958V54.624H151.807L151.627 53.484H147.959V51.3515H151.236V50.2115H147.959V48.2359H151.562L151.728 47.0958H146.726Z" fill="white"/>
<path d="M158.291 47.059L156.583 49.9023L154.866 47.0959H153.56L155.769 50.8485L153.56 54.6103H154.89L156.583 51.7716L158.267 54.578H159.597L157.388 50.8161L159.597 47.059H158.291Z" fill="white"/>
<path d="M175.179 47.0958V52.2331L171.751 47.0958H170.687V54.624H171.824V49.4221L175.289 54.624H176.316V47.0958H175.179Z" fill="white"/>
<path d="M178.382 47.0958V54.624H183.458L183.279 53.484H179.615V51.3515H182.887V50.2115H179.615V48.2359H183.218L183.384 47.0958H178.382Z" fill="white"/>
<path d="M161.581 50.8162L163.114 48.2129H166.22L167.752 50.8162L166.22 53.4195H163.114L161.581 50.8162ZM162.46 47.0728L160.255 50.8162L162.46 54.5642H166.869L169.073 50.8162L166.869 47.0728H162.46Z" fill="#EE7F23"/>
<path d="M91.7112 53.7471V48.8729H93.511C93.9021 48.8729 94.2196 48.9375 94.4773 49.0668C94.7301 49.196 94.9233 49.3761 95.0476 49.6022C95.1719 49.8284 95.2365 50.0868 95.2365 50.3684C95.2365 50.65 95.1767 50.8854 95.0567 51.1116C94.9373 51.3377 94.7484 51.5177 94.4956 51.6562C94.2427 51.7947 93.9156 51.8593 93.5153 51.8593H92.6044V53.7471H91.7161H91.7112ZM92.5995 51.1346H93.4556C93.7639 51.1346 93.9893 51.0654 94.1276 50.9269C94.2653 50.7885 94.3347 50.6038 94.3347 50.3638C94.3347 50.1238 94.2653 49.9346 94.1276 49.7961C93.9893 49.6576 93.7687 49.5884 93.4556 49.5884H92.5995V51.13V51.1346Z" fill="white"/>
<path d="M98.2097 53.8302C97.7217 53.8302 97.2982 53.724 96.9345 53.5117C96.5714 53.2994 96.2856 53.004 96.0791 52.6255C95.8719 52.247 95.7702 51.8085 95.7702 51.3146C95.7702 50.8207 95.8719 50.3776 96.0791 50.0038C96.2856 49.6253 96.5714 49.3299 96.9345 49.1176C97.2982 48.9052 97.7217 48.7991 98.2097 48.7991C98.6971 48.7991 99.1157 48.9052 99.4794 49.1176C99.8432 49.3299 100.128 49.6253 100.335 50.0038C100.538 50.3823 100.639 50.8207 100.639 51.3146C100.639 51.8085 100.538 52.2517 100.335 52.6255C100.133 53.004 99.8474 53.2994 99.4794 53.5117C99.1114 53.724 98.688 53.8302 98.2097 53.8302ZM98.2097 53.027C98.674 53.027 99.0426 52.8747 99.3186 52.5655C99.5946 52.2609 99.7329 51.8408 99.7329 51.3054C99.7329 50.77 99.5946 50.3499 99.3186 50.0453C99.0426 49.7407 98.674 49.5837 98.2097 49.5837C97.7448 49.5837 97.3762 49.7361 97.0959 50.0453C96.8199 50.3499 96.6768 50.77 96.6768 51.3054C96.6768 51.8408 96.8151 52.2609 97.0959 52.5655C97.3762 52.8701 97.7448 53.027 98.2097 53.027Z" fill="white"/>
<path d="M102.199 53.7471L100.915 48.8729H101.868L102.742 52.7547L103.769 48.8729H104.748L105.747 52.7547L106.621 48.8729H107.579L106.258 53.7471H105.204L104.238 50.133L103.244 53.7471H102.195H102.199Z" fill="white"/>
<path d="M108.228 53.7471V48.8729H111.403V49.5884H109.116V50.9269H111.191V51.6239H109.116V53.0317H111.403V53.7471H108.228Z" fill="white"/>
<path d="M112.245 53.7471V48.8729H114.031C114.422 48.8729 114.739 48.9375 114.993 49.0714C115.246 49.2053 115.434 49.3806 115.559 49.6068C115.683 49.833 115.747 50.0823 115.747 50.3546C115.747 50.65 115.669 50.9223 115.512 51.1716C115.356 51.4208 115.117 51.5962 114.786 51.707L115.793 53.7471H114.772L113.87 51.8223H113.133V53.7471H112.245ZM113.133 51.1716H113.975C114.27 51.1716 114.491 51.0977 114.629 50.9546C114.767 50.8115 114.836 50.6223 114.836 50.3823C114.836 50.1422 114.767 49.9622 114.629 49.8238C114.491 49.6853 114.27 49.6161 113.966 49.6161H113.133V51.1716Z" fill="white"/>
<path d="M116.571 53.7471V48.8729H119.746V49.5884H117.459V50.9269H119.534V51.6239H117.459V53.0317H119.746V53.7471H116.571Z" fill="white"/>
<path d="M120.583 53.7471V48.8729H122.245C122.815 48.8729 123.285 48.9744 123.653 49.1776C124.021 49.3806 124.293 49.6622 124.472 50.0268C124.651 50.3915 124.739 50.8207 124.739 51.31C124.739 51.7993 124.651 52.2286 124.472 52.5932C124.293 52.9579 124.021 53.2394 123.653 53.4425C123.285 53.6456 122.815 53.7471 122.245 53.7471H120.583ZM121.472 52.9809H122.199C122.608 52.9809 122.926 52.9163 123.165 52.7824C123.399 52.6486 123.57 52.4593 123.671 52.2101C123.772 51.9608 123.823 51.6608 123.823 51.31C123.823 50.9592 123.772 50.6638 123.671 50.4099C123.57 50.1607 123.399 49.9668 123.165 49.833C122.93 49.6992 122.608 49.6299 122.199 49.6299H121.472V52.9809Z" fill="white"/>
<path d="M127.463 53.7471V48.8729H129.414C129.92 48.8729 130.302 48.9883 130.569 49.2237C130.836 49.4591 130.97 49.7591 130.97 50.1238C130.97 50.4284 130.887 50.673 130.721 50.8577C130.555 51.0423 130.358 51.1669 130.118 51.2315C130.394 51.2869 130.625 51.4254 130.804 51.647C130.984 51.8685 131.076 52.1224 131.076 52.4178C131.076 52.8055 130.937 53.124 130.661 53.3732C130.385 53.6225 129.989 53.7471 129.479 53.7471H127.458H127.463ZM128.352 50.9177H129.281C129.529 50.9177 129.722 50.8577 129.856 50.7423C129.989 50.6269 130.059 50.4607 130.059 50.2484C130.059 50.0361 129.994 49.8838 129.861 49.7638C129.727 49.6437 129.529 49.5884 129.267 49.5884H128.352V50.9177ZM128.352 53.0224H129.345C129.607 53.0224 129.814 52.9624 129.962 52.8378C130.109 52.7132 130.183 52.5424 130.183 52.3208C130.183 52.0993 130.104 51.9147 129.953 51.7854C129.801 51.6562 129.594 51.5916 129.336 51.5916H128.356V53.0271L128.352 53.0224Z" fill="white"/>
<path d="M132.893 53.7471V52.0116L131.26 48.8683H132.267L133.344 51.1208L134.411 48.8683H135.406L133.781 52.0116V53.7471H132.893Z" fill="white"/>
</g>
<defs>
<linearGradient id="paint0_linear_2001_15" x1="-20.6142" y1="65.4848" x2="139.493" y2="-3.88713" gradientUnits="userSpaceOnUse">
<stop stop-color="#40BCD2"/>
<stop offset="0.52" stop-color="#1A80C3"/>
<stop offset="1" stop-color="#32B4D1"/>
</linearGradient>
<linearGradient id="paint1_linear_2001_15" x1="-33.1863" y1="36.4706" x2="126.926" y2="-32.9014" gradientUnits="userSpaceOnUse">
<stop stop-color="#40BCD2"/>
<stop offset="0.52" stop-color="#1A80C3"/>
<stop offset="1" stop-color="#32B4D1"/>
</linearGradient>
<linearGradient id="paint2_linear_2001_15" x1="-27.6915" y1="49.1545" x2="132.42" y2="-20.2221" gradientUnits="userSpaceOnUse">
<stop offset="0.52" stop-color="#1A80C3"/>
<stop offset="1" stop-color="#32B4D1"/>
</linearGradient>
<linearGradient id="paint3_linear_2001_15" x1="-26.1178" y1="52.7825" x2="133.989" y2="-16.5941" gradientUnits="userSpaceOnUse">
<stop stop-color="#40BCD2"/>
<stop offset="0.52" stop-color="#1A80C3"/>
<stop offset="1" stop-color="#32B4D1"/>
</linearGradient>
<clipPath id="clip0_2001_15">
<rect width="184" height="55" fill="white"/>
</clipPath>
</defs>
</svg>
